<svg xmlns="http://www.w3.org/2000/svg" xmlns:xlink="http://www.w3.org/1999/xlink" width="107.137mm" height="91.783mm" viewBox="4025.8 4005.8 281.2 240.9"><title></title><style type="text/css">
*[layerid="1"] {stroke:#FF0000;fill:#FF0000;}
*[layerid="2"] {stroke:#0000FF;fill:#0000FF;}
*[layerid="3"] {stroke:#FFCC00;fill:#FFCC00;}
*[layerid="4"] {stroke:#66CC33;fill:#66CC33;}
*[layerid="5"] {stroke:#808080;fill:#808080;}
*[layerid="6"] {stroke:#800000;fill:#800000;}
*[layerid="7"] {stroke:#800080;fill:#800080;stroke-opacity:0.7;fill-opacity:0.7;}
*[layerid="8"] {stroke:#AA00FF;fill:#AA00FF;stroke-opacity:0.7;fill-opacity:0.7;}
*[layerid="9"] {stroke:#6464FF;fill:#6464FF;}
*[layerid="10"] {stroke:#FF00FF;fill:#FF00FF;}
*[layerid="11"] {stroke:#C0C0C0;fill:#C0C0C0;}
*[layerid="12"] {stroke:#FFFFFF;fill:#FFFFFF;}
*[layerid="13"] {stroke:#33CC99;fill:#33CC99;}
*[layerid="14"] {stroke:#5555FF;fill:#5555FF;}
*[layerid="15"] {stroke:#F022F0;fill:#F022F0;}
*[layerid="19"] {stroke:#66CCFF;fill:#66CCFF;}
*[layerid="21"] {stroke:#999966;fill:#999966;}
*[layerid="22"] {stroke:#008000;fill:#008000;}
*[layerid="23"] {stroke:#00FF00;fill:#00FF00;}
*[layerid="24"] {stroke:#BC8E00;fill:#BC8E00;}
*[layerid="25"] {stroke:#70DBFA;fill:#70DBFA;}
*[layerid="26"] {stroke:#00CC66;fill:#00CC66;}
*[layerid="27"] {stroke:#9966FF;fill:#9966FF;}
*[layerid="28"] {stroke:#800080;fill:#800080;}
*[layerid="29"] {stroke:#008080;fill:#008080;}
*[layerid="30"] {stroke:#15935F;fill:#15935F;}
*[layerid="31"] {stroke:#000080;fill:#000080;}
*[layerid="32"] {stroke:#00B400;fill:#00B400;}
*[layerid="33"] {stroke:#2E4756;fill:#2E4756;}
*[layerid="34"] {stroke:#99842F;fill:#99842F;}
*[layerid="35"] {stroke:#FFFFAA;fill:#FFFFAA;}
*[layerid="36"] {stroke:#99842F;fill:#99842F;}
*[layerid="37"] {stroke:#2E4756;fill:#2E4756;}
*[layerid="38"] {stroke:#3535FF;fill:#3535FF;}
*[layerid="39"] {stroke:#8000BC;fill:#8000BC;}
*[layerid="40"] {stroke:#43AE5F;fill:#43AE5F;}
*[layerid="41"] {stroke:#C3ECCE;fill:#C3ECCE;}
*[layerid="42"] {stroke:#728978;fill:#728978;}
*[layerid="43"] {stroke:#39503F;fill:#39503F;}
*[layerid="44"] {stroke:#0C715D;fill:#0C715D;}
*[layerid="45"] {stroke:#5A8A80;fill:#5A8A80;}
*[layerid="46"] {stroke:#2B937E;fill:#2B937E;}
*[layerid="47"] {stroke:#23999D;fill:#23999D;}
*[layerid="48"] {stroke:#45B4E3;fill:#45B4E3;}
*[layerid="49"] {stroke:#215DA1;fill:#215DA1;}
*[layerid="50"] {stroke:#4564D7;fill:#4564D7;}
*[layerid="51"] {stroke:#6969E9;fill:#6969E9;}
*[layerid="52"] {stroke:#9069E9;fill:#9069E9;}
*[layerid="99"] {stroke:#00CCCC;fill:#00CCCC;}
*[layerid="100"] {stroke:#CC9999;fill:#CC9999;}
*[layerid="101"] {stroke:#66FFCC;fill:#66FFCC;}
*[layerid="Hole"] {stroke:#222222;fill:#222222;}
*[layerid="DRCError"] {stroke:#FAD609;fill:#FAD609;}
*[fill="none"] {fill: none;}
*[stroke="none"] {stroke: none;}
path, polyline, polygon, line {stroke-linecap:round;}
g[c_partid="part_pad"][layerid="1"] ellipse:not([c_etype="pad_outer"]) {fill:#FF0000;}
g[c_partid="part_pad"][layerid="1"] polygon:not([c_etype="pad_outer"]) {fill:#FF0000;}
g[c_partid="part_pad"][layerid="1"] polyline:not([c_etype="pad_outer"]) {stroke:#FF0000;}
g[c_partid="part_pad"][layerid="2"] ellipse:not([c_etype="pad_outer"]) {fill:#0000FF;}
g[c_partid="part_pad"][layerid="2"] polygon:not([c_etype="pad_outer"]) {fill:#0000FF;}
g[c_partid="part_pad"][layerid="2"] polyline:not([c_etype="pad_outer"]) {stroke:#0000FF;}
g[c_partid="part_pad"][layerid="11"] ellipse:not([c_etype="pad_outer"]) {fill:#C0C0C0;}
g[c_partid="part_pad"][layerid="11"] polygon:not([c_etype="pad_outer"]) {fill:#C0C0C0;}
g[c_partid="part_pad"][layerid="11"] polyline:not([c_etype="pad_outer"]) {stroke:#C0C0C0;}
g[c_partid="part_pad"][layerid="11"] circle {fill:#222222;}
g[c_partid="part_pad"][layerid="11"] > polyline:nth-of-type(2) {stroke:#222222;}
g[c_partid="part_pad"][layerid="11"][c_shape="ELLIPSE"]  polyline:nth-last-of-type(1) {stroke:#222222;}
g[c_partid="part_pad"][layerid="11"][c_shape="RECT"]  polyline:nth-last-of-type(1) {stroke:#222222;}
g[c_partid="part_pad"][layerid="11"][c_shape="POLYGON"]  polyline:nth-last-of-type(1) {stroke:#222222;}
g[c_partid="part_via"] > * + circle, #gCurParts g[c_partid="part_via"] > * + circle {fill:#222222;}
g[c_partid="part_pad"] > polygon[c_etype="pad_outer"], #gCurParts g[c_partid="part_pad"] > polygon[c_etype="pad_outer"] {stroke-linejoin: miter;stroke-miterlimit: 100;}
g[c_partid="part_hole"] > circle {fill: #222222;}path, polyline, polygon {stroke-linejoin:round;}
rect, circle, ellipse, polyline, line, polygon, path {shape-rendering:crispEdges;}
</style>
<rect x="4025.8" y="4005.8" width="281.2" height="240.9" fill="#000000" stroke="none"/><polyline points="4177.4803 4147.9252 4142.4803 4147.9252 4138.1102 4143.5551 4137.3622 4143.5551" stroke-width="7.874"  stroke-linecap="round" fill="none" layerid="2" net="LIVE" id="gge660" locked="0" /><polyline points="4177.0784 4100.6811 4140.2362 4100.6811 4137.3622 4103.5551" stroke-width="7.874"  stroke-linecap="round" fill="none" layerid="2" net="SWITCHED" id="gge659" locked="0" /><polyline points="4107.6142 4073.3031 4084.6142 4096.3031 4084.6142 4109.8071 4084.0551 4110.3662" stroke-width="3.937"  stroke-linecap="round" fill="none" layerid="2" net="5V" id="gge658" locked="0" /><polyline points="4106.6142 4058.5551 4107.6142 4059.5551 4107.6142 4073.3031 4107.3622 4073.5551" stroke-width="3.937"  stroke-linecap="round" fill="none" layerid="2" net="5V" id="gge654" locked="0" /><polyline points="4214.5784 4100.6811 4214.5784 4146.6811 4214.9803 4147.083 4214.9803 4147.9252" stroke-width="7.874"  stroke-linecap="round" fill="none" layerid="2" net="NEUTRAL" id="gge633" locked="0" /><polyline points="4177.0784 4100.6811 4140.2362 4100.6811 4137.3622 4103.5551" stroke-width="7.874"  stroke-linecap="round" fill="none" layerid="1" net="SWITCHED" id="gge663" locked="0" /><polyline points="4177.4803 4147.9252 4142.4803 4147.9252 4138.1102 4143.5551 4137.3622 4143.5551" stroke-width="7.874"  stroke-linecap="round" fill="none" layerid="1" net="LIVE" id="gge661" locked="0" /><polyline points="4137.36 4073.56 4115.39 4095.52 4088.37 4095.52 4074.06 4109.84 4074.06 4110.37" stroke-width="3.937"  stroke-linecap="round" fill="none" layerid="1" net="GND" id="gge657" locked="0" /><polyline points="4138.1102 4058.5551 4138.1102 4072.8071 4137.3622 4073.5551" stroke-width="3.937"  stroke-linecap="round" fill="none" layerid="1" net="GND" id="gge653" locked="0" /><polyline points="4214.5784 4100.6811 4214.5784 4146.6811 4214.9803 4147.083 4214.9803 4147.9252" stroke-width="7.874"  stroke-linecap="round" fill="none" layerid="1" net="NEUTRAL" id="gge630" locked="0" /><g c_partid="part_pad" c_etype="pinpart" c_origin="4137.36,4073.56" layerid="11" number="16" net="GND" plated ="Y"  id="gge682" locked="0" c_rotation="270" c_width="7.0866" c_height="7.0866" title="GND" c_shape="ELLIPSE" pasteexpansion="0" solderexpansion="0.4"><ellipse c_etype="pad_shell" cx="4137.36" cy="4073.56" rx="3.5433" ry="3.5433" layerid="11" stroke-width="0"/><circle c_etype="pad_hole" cx="4137.36" cy="4073.56" r="2.362" layerid="11" stroke-width="0"/></g><g c_partid="part_pad" c_etype="pinpart" c_origin="4137.36,4103.56" layerid="11" number="13" net="SWITCHED" plated ="Y"  id="gge687" locked="0" c_rotation="270" c_width="7.0866" c_height="7.0866" title="SWITCHED" c_shape="ELLIPSE" pasteexpansion="0" solderexpansion="0.4"><ellipse c_etype="pad_shell" cx="4137.36" cy="4103.56" rx="3.5433" ry="3.5433" layerid="11" stroke-width="0"/><circle c_etype="pad_hole" cx="4137.36" cy="4103.56" r="2.362" layerid="11" stroke-width="0"/></g><g c_partid="part_pad" c_etype="pinpart" c_origin="4137.36,4123.56" layerid="11" number="11" net="" plated ="Y"  id="gge692" locked="0" c_rotation="270" c_width="7.0866" c_height="7.0866" title="" c_shape="ELLIPSE" pasteexpansion="0" solderexpansion="0.4"><ellipse c_etype="pad_shell" cx="4137.36" cy="4123.56" rx="3.5433" ry="3.5433" layerid="11" stroke-width="0"/><circle c_etype="pad_hole" cx="4137.36" cy="4123.56" r="2.362" layerid="11" stroke-width="0"/></g><g c_partid="part_pad" c_etype="pinpart" c_origin="4137.36,4143.56" layerid="11" number="9" net="LIVE" plated ="Y"  id="gge697" locked="0" c_rotation="270" c_width="7.0866" c_height="7.0866" title="LIVE" c_shape="ELLIPSE" pasteexpansion="0" solderexpansion="0.4"><ellipse c_etype="pad_shell" cx="4137.36" cy="4143.56" rx="3.5433" ry="3.5433" layerid="11" stroke-width="0"/><circle c_etype="pad_hole" cx="4137.36" cy="4143.56" r="2.362" layerid="11" stroke-width="0"/></g><g c_partid="part_pad" c_etype="pinpart" c_origin="4107.36,4143.56" layerid="11" number="8" net="" plated ="Y"  id="gge702" locked="0" c_rotation="270" c_width="7.0866" c_height="7.0866" title="" c_shape="ELLIPSE" pasteexpansion="0" solderexpansion="0.4"><ellipse c_etype="pad_shell" cx="4107.36" cy="4143.56" rx="3.5433" ry="3.5433" layerid="11" stroke-width="0"/><circle c_etype="pad_hole" cx="4107.36" cy="4143.56" r="2.362" layerid="11" stroke-width="0"/></g><g c_partid="part_pad" c_etype="pinpart" c_origin="4107.36,4123.56" layerid="11" number="6" net="" plated ="Y"  id="gge707" locked="0" c_rotation="270" c_width="7.0866" c_height="7.0866" title="" c_shape="ELLIPSE" pasteexpansion="0" solderexpansion="0.4"><ellipse c_etype="pad_shell" cx="4107.36" cy="4123.56" rx="3.5433" ry="3.5433" layerid="11" stroke-width="0"/><circle c_etype="pad_hole" cx="4107.36" cy="4123.56" r="2.362" layerid="11" stroke-width="0"/></g><g c_partid="part_pad" c_etype="pinpart" c_origin="4107.36,4103.56" layerid="11" number="4" net="" plated ="Y"  id="gge712" locked="0" c_rotation="270" c_width="7.0866" c_height="7.0866" title="" c_shape="ELLIPSE" pasteexpansion="0" solderexpansion="0.4"><ellipse c_etype="pad_shell" cx="4107.36" cy="4103.56" rx="3.5433" ry="3.5433" layerid="11" stroke-width="0"/><circle c_etype="pad_hole" cx="4107.36" cy="4103.56" r="2.362" layerid="11" stroke-width="0"/></g><g c_partid="part_pad" c_etype="pinpart" c_origin="4107.36,4073.56" layerid="11" number="1" net="5V" plated ="Y"  id="gge717" locked="0" c_rotation="270" c_width="7.0866" c_height="7.0866" title="5V" c_shape="ELLIPSE" pasteexpansion="0" solderexpansion="0.4"><ellipse c_etype="pad_shell" cx="4107.36" cy="4073.56" rx="3.5433" ry="3.5433" layerid="11" stroke-width="0"/><circle c_etype="pad_hole" cx="4107.36" cy="4073.56" r="2.362" layerid="11" stroke-width="0"/></g><g c_partid="part_pad" c_etype="pinpart" c_origin="4177.48,4147.93" layerid="11" number="1" net="LIVE" plated ="Y"  id="gge729" locked="0" c_rotation="0" c_width="10.95" c_height="10.95" title="LIVE" c_shape="ELLIPSE" pasteexpansion="0" solderexpansion="0.4"><ellipse c_etype="pad_shell" cx="4177.48" cy="4147.93" rx="5.475" ry="5.475" layerid="11" stroke-width="0"/><polyline c_etype="pad_hole" points="4177.47 4147.93 4177.49 4147.93" layerid="11" stroke-width="7.3"></polyline></g><g c_partid="part_pad" c_etype="pinpart" c_origin="4214.98,4147.93" layerid="11" number="2" net="NEUTRAL" plated ="Y"  id="gge734" locked="0" c_rotation="0" c_width="10.95" c_height="10.95" title="NEUTRAL" c_shape="ELLIPSE" pasteexpansion="0" solderexpansion="0.4"><ellipse c_etype="pad_shell" cx="4214.98" cy="4147.93" rx="5.475" ry="5.475" layerid="11" stroke-width="0"/><polyline c_etype="pad_hole" points="4214.97 4147.93 4214.99 4147.93" layerid="11" stroke-width="7.3"></polyline></g><g c_partid="part_pad" c_etype="pinpart" c_origin="4214.58,4100.68" layerid="11" number="1" net="NEUTRAL" plated ="Y"  id="gge746" locked="0" c_rotation="180" c_width="10.95" c_height="10.95" title="NEUTRAL" c_shape="ELLIPSE" pasteexpansion="0" solderexpansion="0.4"><ellipse c_etype="pad_shell" cx="4214.58" cy="4100.68" rx="5.475" ry="5.475" layerid="11" stroke-width="0"/><polyline c_etype="pad_hole" points="4214.59 4100.68 4214.57 4100.68" layerid="11" stroke-width="7.3"></polyline></g><g c_partid="part_pad" c_etype="pinpart" c_origin="4177.08,4100.68" layerid="11" number="2" net="SWITCHED" plated ="Y"  id="gge751" locked="0" c_rotation="180" c_width="10.95" c_height="10.95" title="SWITCHED" c_shape="ELLIPSE" pasteexpansion="0" solderexpansion="0.4"><ellipse c_etype="pad_shell" cx="4177.08" cy="4100.68" rx="5.475" ry="5.475" layerid="11" stroke-width="0"/><polyline c_etype="pad_hole" points="4177.09 4100.68 4177.07 4100.68" layerid="11" stroke-width="7.3"></polyline></g><g c_partid="part_pad" c_etype="pinpart" c_origin="4138.11,4058.555" layerid="11" number="1" net="GND" plated ="Y"  id="gge579" locked="0" c_rotation="180" c_width="7.0866" c_height="7.0866" title="GND" c_shape="ELLIPSE" pasteexpansion="0" solderexpansion="0.4"><ellipse c_etype="pad_shell" cx="4138.11" cy="4058.555" rx="3.5433" ry="3.5433" layerid="11" stroke-width="0"/><circle c_etype="pad_hole" cx="4138.1099" cy="4058.5551" r="1.9685" layerid="11" stroke-width="0"/></g><g c_partid="part_pad" c_etype="pinpart" c_origin="4106.614,4058.555" layerid="11" number="2" net="5V" plated ="Y"  id="gge584" locked="0" c_rotation="180" c_width="7.0866" c_height="7.0866" title="5V" c_shape="ELLIPSE" pasteexpansion="0" solderexpansion="0.4"><ellipse c_etype="pad_shell" cx="4106.614" cy="4058.555" rx="3.5433" ry="3.5433" layerid="11" stroke-width="0"/><circle c_etype="pad_hole" cx="4106.6145" cy="4058.5551" r="1.9685" layerid="11" stroke-width="0"/></g><g c_partid="part_pad" c_etype="pinpart" c_origin="4074.055,4110.366" layerid="11" number="1" net="GND" plated ="Y"  id="gge435" locked="0" c_rotation="270" c_width="7.0866" c_height="7.0866" title="GND" c_shape="RECT" pasteexpansion="0" solderexpansion="0.4"><polygon  c_etype="pad_shell" points="4077.5984 4106.8229 4077.5984 4113.9095 4070.5118 4113.9095 4070.5118 4106.8229" layerid="11" stroke-width="0" /><circle c_etype="pad_hole" cx="4074.0551" cy="4110.3662" r="2.3622" layerid="11" stroke-width="0"/></g><g c_partid="part_pad" c_etype="pinpart" c_origin="4084.055,4110.366" layerid="11" number="2" net="5V" plated ="Y"  id="gge440" locked="0" c_rotation="270" c_width="7.0866" c_height="7.0866" title="5V" c_shape="ELLIPSE" pasteexpansion="0" solderexpansion="0.4"><ellipse c_etype="pad_shell" cx="4084.055" cy="4110.366" rx="3.5433" ry="3.5433" layerid="11" stroke-width="0"/><circle c_etype="pad_hole" cx="4084.0551" cy="4110.3662" r="2.3622" layerid="11" stroke-width="0"/></g><g c_partid="part_pad" c_etype="pinpart" c_origin="4074.055,4120.366" layerid="11" number="3" net="" plated ="Y"  id="gge445" locked="0" c_rotation="270" c_width="7.0866" c_height="7.0866" title="" c_shape="ELLIPSE" pasteexpansion="0" solderexpansion="0.4"><ellipse c_etype="pad_shell" cx="4074.055" cy="4120.366" rx="3.5433" ry="3.5433" layerid="11" stroke-width="0"/><circle c_etype="pad_hole" cx="4074.0551" cy="4120.3662" r="2.3622" layerid="11" stroke-width="0"/></g><g c_partid="part_pad" c_etype="pinpart" c_origin="4084.055,4120.366" layerid="11" number="4" net="" plated ="Y"  id="gge450" locked="0" c_rotation="270" c_width="7.0866" c_height="7.0866" title="" c_shape="ELLIPSE" pasteexpansion="0" solderexpansion="0.4"><ellipse c_etype="pad_shell" cx="4084.055" cy="4120.366" rx="3.5433" ry="3.5433" layerid="11" stroke-width="0"/><circle c_etype="pad_hole" cx="4084.0551" cy="4120.3662" r="2.3622" layerid="11" stroke-width="0"/></g><g c_partid="part_pad" c_etype="pinpart" c_origin="4074.055,4130.366" layerid="11" number="5" net="" plated ="Y"  id="gge455" locked="0" c_rotation="270" c_width="7.0866" c_height="7.0866" title="" c_shape="ELLIPSE" pasteexpansion="0" solderexpansion="0.4"><ellipse c_etype="pad_shell" cx="4074.055" cy="4130.366" rx="3.5433" ry="3.5433" layerid="11" stroke-width="0"/><circle c_etype="pad_hole" cx="4074.0551" cy="4130.3662" r="2.3622" layerid="11" stroke-width="0"/></g><g c_partid="part_pad" c_etype="pinpart" c_origin="4084.055,4130.366" layerid="11" number="6" net="" plated ="Y"  id="gge460" locked="0" c_rotation="270" c_width="7.0866" c_height="7.0866" title="" c_shape="ELLIPSE" pasteexpansion="0" solderexpansion="0.4"><ellipse c_etype="pad_shell" cx="4084.055" cy="4130.366" rx="3.5433" ry="3.5433" layerid="11" stroke-width="0"/><circle c_etype="pad_hole" cx="4084.0551" cy="4130.3662" r="2.3622" layerid="11" stroke-width="0"/></g><g c_partid="part_hole" c_etype="pinpart" c_shapetype="group" c_origin="4252.284,4053.437" layerid="11" id="gge491" locked="0" ><circle cx="4252.284" cy="4053.437" r="5.9055"  stroke-width="0" /></g><g c_partid="part_hole" c_etype="pinpart" c_shapetype="group" c_origin="4067.244,4053.437" layerid="11" id="gge500" locked="0" ><circle cx="4067.244" cy="4053.437" r="5.9055"  stroke-width="0" /></g><g c_partid="part_hole" c_etype="pinpart" c_shapetype="group" c_origin="4067.244,4195.169" layerid="11" id="gge505" locked="0" ><circle cx="4067.244" cy="4195.169" r="5.9055"  stroke-width="0" /></g><g c_partid="part_hole" c_etype="pinpart" c_shapetype="group" c_origin="4252.284,4195.169" layerid="11" id="gge510" locked="0" ><circle cx="4252.284" cy="4195.169" r="5.9055"  stroke-width="0" /></g><polyline points="4102.36 4068.56 4102.36 4148.56" stroke-width="1"  stroke-linecap="round" fill="none" layerid="3" net="" id="gge666" locked="0" /><polyline points="4102.36 4148.56 4142.36 4148.56" stroke-width="1"  stroke-linecap="round" fill="none" layerid="3" net="" id="gge667" locked="0" /><polyline points="4102.36 4068.56 4142.36 4068.56 4142.36 4148.56" stroke-width="1"  stroke-linecap="round" fill="none" layerid="3" net="" id="gge668" locked="0" /><polyline points="4119.36 4070.56 4119.36 4079.56 4125.36 4079.56 4125.36 4070.56 4119.36 4070.56" stroke-width="1"  stroke-linecap="round" fill="none" layerid="3" net="" id="gge669" locked="0" /><polyline points="4125.36 4074.56 4132.36 4074.56" stroke-width="1"  stroke-linecap="round" fill="none" layerid="3" net="" id="gge670" locked="0" /><polyline points="4112.36 4103.56 4118.36 4103.56 4118.36 4133.56 4112.36 4133.56 4106.36 4129.56" stroke-width="1"  stroke-linecap="round" fill="none" layerid="3" net="" id="gge671" locked="0" /><polyline points="4112.36 4123.56 4112.36 4123.56 4112.36 4130.56 4110.36 4128.56" stroke-width="1"  stroke-linecap="round" fill="none" layerid="3" net="" id="gge672" locked="0" /><polyline points="4112.36 4130.56 4114.36 4128.56" stroke-width="1"  stroke-linecap="round" fill="none" layerid="3" net="" id="gge673" locked="0" /><polyline points="4111.36 4143.56 4112.36 4143.56 4112.36 4136.56 4110.36 4138.56" stroke-width="1"  stroke-linecap="round" fill="none" layerid="3" net="" id="gge674" locked="0" /><polyline points="4112.36 4136.56 4114.36 4138.56" stroke-width="1"  stroke-linecap="round" fill="none" layerid="3" net="" id="gge675" locked="0" /><polyline points="4132.36 4103.56 4126.36 4103.56 4126.36 4133.56 4132.36 4133.56 4138.36 4129.56" stroke-width="1"  stroke-linecap="round" fill="none" layerid="3" net="" id="gge676" locked="0" /><polyline points="4132.36 4123.56 4132.36 4123.56 4132.36 4130.56 4134.36 4128.56" stroke-width="1"  stroke-linecap="round" fill="none" layerid="3" net="" id="gge677" locked="0" /><polyline points="4132.36 4130.56 4130.36 4128.56" stroke-width="1"  stroke-linecap="round" fill="none" layerid="3" net="" id="gge678" locked="0" /><polyline points="4133.36 4143.56 4132.36 4143.56 4132.36 4136.56 4134.36 4138.56" stroke-width="1"  stroke-linecap="round" fill="none" layerid="3" net="" id="gge679" locked="0" /><polyline points="4132.36 4136.56 4130.36 4138.56" stroke-width="1"  stroke-linecap="round" fill="none" layerid="3" net="" id="gge680" locked="0" /><polyline points="4119.36 4074.6156 4111.6861 4074.6156" stroke-width="1"  stroke-linecap="round" fill="none" layerid="3" net="" id="gge681" locked="0" /><polyline points="4155.48 4129.93 4236.578 4129.93 4236.578 4199.93 4155.48 4199.93 4155.48 4129.93" stroke-width="0.394"  stroke-linecap="round" fill="none" layerid="3" net="" id="gge727" locked="0" /><polyline points="4236.58 4118.68 4155.482 4118.68 4155.482 4048.68 4236.58 4048.68 4236.58 4118.68" stroke-width="0.394"  stroke-linecap="round" fill="none" layerid="3" net="" id="gge744" locked="0" /><polyline points="4113.7009 4054.2243 4131.0237 4054.2243" stroke-width="1"  stroke-linecap="round" fill="none" layerid="3" net="" id="gge572" locked="0" /><polyline points="4113.7009 4062.8859 4131.0237 4062.8859" stroke-width="1"  stroke-linecap="round" fill="none" layerid="3" net="" id="gge573" locked="0" /><polyline points="4113.7009 4054.2243 4113.7009 4062.8859" stroke-width="1"  stroke-linecap="round" fill="none" layerid="3" net="" id="gge574" locked="0" /><polyline points="4131.0237 4054.2243 4131.0237 4062.8859" stroke-width="1"  stroke-linecap="round" fill="none" layerid="3" net="" id="gge575" locked="0" /><polyline points="4117.3992 4054.2243 4117.3992 4062.8859" stroke-width="1"  stroke-linecap="round" fill="none" layerid="3" net="" id="gge576" locked="0" /><polyline points="4096.3779 4090.4055 4096.3779 4150.3268" stroke-width="1"  stroke-linecap="round" fill="none" layerid="3" net="S$111" id="gge427" locked="0" /><polyline points="4096.3779 4150.3269 4061.7323 4150.3268" stroke-width="1"  stroke-linecap="round" fill="none" layerid="3" net="S$113" id="gge428" locked="0" /><polyline points="4061.7323 4150.3268 4061.7323 4090.4058" stroke-width="1"  stroke-linecap="round" fill="none" layerid="3" net="S$111" id="gge429" locked="0" /><polyline points="4061.7323 4090.4058 4096.3779 4090.4058" stroke-width="1"  stroke-linecap="round" fill="none" layerid="3" net="S$113" id="gge430" locked="0" /><polyline points="4064.0551 4092.3662 4094.0551 4092.3662 4094.0551 4148.3662 4064.0551 4148.3662 4064.0551 4130.3662" stroke-width="1"  stroke-linecap="round" fill="none" layerid="3" net="S$121" id="gge431" locked="0" /><polyline points="4064.0551 4110.3662 4064.0551 4092.3662" stroke-width="1"  stroke-linecap="round" fill="none" layerid="3" net="S$123" id="gge432" locked="0" /><polyline points="4064.0107 4096.0364 4070.0551 4099.3662 4064.0107 4103.0364" stroke-width="1"  stroke-linecap="round" fill="none" layerid="3" net="S$119" id="gge433" locked="0" /><polyline points="4062.0551 4110.3662 4067.1951 4110.3662 4067.1951 4130.3662 4062.0551 4130.3662" stroke-width="1"  stroke-linecap="round" fill="none" layerid="3" net="S$117" id="gge434" locked="0" /><g c_partid="part_pcbtext" c_etype="pinpart" c_origin="4094.803,4151.862" c_rotation="270" c_mirror="0" id="gge473" locked="0" layerid="3" c_shapetype="group" ><path c_fontsize="7.874" c_fontfamily="RubrikMedium" c_text="Rotel Control" d="M 4096.8541 4154.2433 C 4096.8541 4154.4333 4096.7841 4154.5333 4096.6041 4154.6833 L 4094.9041 4156.0633 C 4094.7241 4156.2133 4094.7141 4156.4733 4094.8841 4156.6633 C 4095.0341 4156.8233 4095.3141 4156.8433 4095.4841 4156.6933 L 4097.0441 4155.4133 C 4097.1941 4156.1633 4097.7041 4156.6333 4098.5941 4156.6333 C 4099.1441 4156.6333 4099.5641 4156.4633 4099.8741 4156.1033 C 4100.1841 4155.7633 4100.3341 4155.3233 4100.3341 4154.8033 L 4100.3341 4153.1933 C 4100.3341 4152.8033 4100.0741 4152.5833 4099.7241 4152.5833 L 4095.2041 4152.5833 C 4094.9641 4152.5833 4094.7641 4152.7633 4094.7641 4152.9933 C 4094.7641 4153.2233 4094.9641 4153.4233 4095.2041 4153.4233 L 4096.8541 4153.4233 Z  M 4099.5241 4153.4233 L 4099.5241 4154.7433 C 4099.5241 4155.4333 4099.2141 4155.7833 4098.5941 4155.7833 C 4097.9641 4155.7833 4097.6641 4155.4233 4097.6641 4154.7033 L 4097.6641 4153.4233 Z  M 4099.0441 4159.5633 C 4099.0441 4159.0633 4098.8941 4158.6433 4098.6041 4158.3033 C 4098.3141 4157.9633 4097.9341 4157.7833 4097.4641 4157.7433 C 4097.0941 4157.7233 4096.7141 4157.7233 4096.3341 4157.7433 C 4095.8741 4157.7833 4095.4841 4157.9733 4095.1841 4158.3133 C 4094.8741 4158.6533 4094.7241 4159.0633 4094.7241 4159.5633 C 4094.7241 4160.0633 4094.8741 4160.4833 4095.1841 4160.8233 C 4095.4841 4161.1633 4095.8741 4161.3533 4096.3341 4161.3833 C 4096.7141 4161.4033 4097.0941 4161.4033 4097.4641 4161.3833 C 4097.9341 4161.3533 4098.3141 4161.1633 4098.6041 4160.8233 C 4098.8941 4160.4833 4099.0441 4160.0633 4099.0441 4159.5633 Z  M 4098.2441 4159.5633 C 4098.2441 4160.1333 4097.8841 4160.5233 4097.3541 4160.5533 C 4096.9441 4160.5733 4096.6341 4160.5733 4096.4441 4160.5533 C 4095.8841 4160.5033 4095.5241 4160.1333 4095.5241 4159.5633 C 4095.5241 4158.9933 4095.8841 4158.6333 4096.4441 4158.5833 C 4096.6741 4158.5533 4096.9841 4158.5533 4097.3541 4158.5833 C 4097.8941 4158.6133 4098.2441 4158.9933 4098.2441 4159.5633 Z  M 4094.8741 4164.6633 C 4094.9541 4164.8533 4095.0741 4164.9533 4095.2641 4164.9533 C 4095.5141 4164.9533 4095.7041 4164.7433 4095.6341 4164.4333 C 4095.5541 4164.1433 4095.5141 4163.9533 4095.5141 4163.8733 C 4095.5141 4163.5033 4095.7141 4163.3133 4096.1341 4163.3133 L 4098.0941 4163.3133 L 4098.0941 4164.3933 C 4098.0941 4164.6133 4098.2541 4164.7933 4098.4641 4164.7933 C 4098.6741 4164.7933 4098.8341 4164.6133 4098.8341 4164.3933 L 4098.8341 4163.3133 L 4099.4341 4163.3133 C 4099.6641 4163.3133 4099.8541 4163.1233 4099.8541 4162.8933 C 4099.8541 4162.6633 4099.6741 4162.4733 4099.4341 4162.4733 L 4096.1441 4162.4733 C 4095.2941 4162.4733 4094.7241 4162.9233 4094.7241 4163.7833 C 4094.7241 4164.1333 4094.7741 4164.4333 4094.8741 4164.6633 Z  M 4097.2841 4169.2133 C 4097.8141 4169.2133 4098.2341 4169.0533 4098.5641 4168.7333 C 4098.8841 4168.4033 4099.0441 4167.9833 4099.0441 4167.4633 C 4099.0441 4166.9633 4098.8941 4166.5433 4098.5941 4166.2133 C 4098.3041 4165.8833 4097.8941 4165.7033 4097.3941 4165.6633 C 4097.0441 4165.6433 4096.7041 4165.6433 4096.4141 4165.6633 C 4095.9141 4165.6933 4095.5041 4165.8733 4095.1841 4166.2033 C 4094.8841 4166.5333 4094.7241 4166.9633 4094.7241 4167.5033 C 4094.7241 4168.0533 4094.8141 4168.4733 4095.0041 4168.7733 C 4095.0841 4168.9133 4095.2041 4168.9833 4095.3541 4168.9833 C 4095.6041 4168.9833 4095.8041 4168.7433 4095.6741 4168.4233 C 4095.5541 4168.0633 4095.4841 4167.7633 4095.4841 4167.5133 C 4095.4841 4166.8833 4095.8441 4166.4733 4096.4641 4166.4733 L 4096.5641 4166.4733 L 4096.5641 4168.7033 C 4096.5641 4169.0433 4096.7541 4169.2133 4097.0641 4169.2133 Z  M 4097.2241 4166.4733 C 4097.8941 4166.4533 4098.3041 4166.8033 4098.3041 4167.4633 C 4098.3041 4168.0633 4097.9041 4168.4333 4097.3141 4168.3933 C 4097.2541 4168.3933 4097.2241 4168.3533 4097.2241 4168.3033 Z  M 4099.9941 4171.1033 C 4100.2241 4171.1033 4100.4141 4170.9133 4100.4141 4170.6833 C 4100.4141 4170.4533 4100.2341 4170.2633 4099.9941 4170.2633 L 4095.1941 4170.2633 C 4094.9641 4170.2633 4094.7741 4170.4633 4094.7741 4170.6833 C 4094.7741 4170.9233 4094.9541 4171.1033 4095.1941 4171.1033 L 4099.9941 4171.1033 Z  M 4095.5241 4176.8033 C 4095.5241 4175.9833 4096.1141 4175.4333 4097.0041 4175.3533 C 4097.3741 4175.3333 4097.7441 4175.3333 4098.1141 4175.3533 C 4098.5541 4175.3933 4098.9141 4175.5433 4099.1841 4175.8033 C 4099.4741 4176.0633 4099.6141 4176.3933 4099.6141 4176.8033 C 4099.6141 4177.3733 4099.2941 4177.8633 4098.7841 4178.0933 C 4098.6141 4178.1833 4098.5241 4178.3133 4098.5241 4178.4733 C 4098.5241 4178.6733 4098.7041 4178.8833 4098.9241 4178.8833 C 4099.0041 4178.8833 4099.0741 4178.8733 4099.1341 4178.8433 C 4099.5241 4178.6833 4099.8441 4178.4133 4100.0741 4178.0433 C 4100.3041 4177.6733 4100.4141 4177.2533 4100.4141 4176.8033 C 4100.4141 4176.1733 4100.2041 4175.6433 4099.7841 4175.2133 C 4099.3641 4174.8033 4098.8341 4174.5633 4098.1941 4174.5133 C 4097.7841 4174.4733 4097.3641 4174.4733 4096.9341 4174.5133 C 4096.3041 4174.5633 4095.7641 4174.8033 4095.3441 4175.2133 C 4094.9341 4175.6433 4094.7141 4176.1733 4094.7141 4176.8133 C 4094.7141 4177.2633 4094.8341 4177.6733 4095.0641 4178.0433 C 4095.2941 4178.4133 4095.6041 4178.6833 4096.0041 4178.8433 C 4096.0741 4178.8733 4096.1441 4178.8833 4096.2141 4178.8833 C 4096.4341 4178.8833 4096.6041 4178.6733 4096.6041 4178.4733 C 4096.6041 4178.3133 4096.5241 4178.1833 4096.3541 4178.0933 C 4095.8541 4177.8633 4095.5241 4177.3733 4095.5241 4176.8033 Z  M 4099.0441 4181.5533 C 4099.0441 4181.0633 4098.8941 4180.6333 4098.6041 4180.2933 C 4098.3141 4179.9533 4097.9341 4179.7733 4097.4641 4179.7333 C 4097.0941 4179.7133 4096.7141 4179.7133 4096.3341 4179.7333 C 4095.8741 4179.7733 4095.4841 4179.9633 4095.1841 4180.3033 C 4094.8741 4180.6433 4094.7241 4181.0633 4094.7241 4181.5533 C 4094.7241 4182.0533 4094.8741 4182.4733 4095.1841 4182.8133 C 4095.4841 4183.1533 4095.8741 4183.3433 4096.3341 4183.3733 C 4096.7141 4183.3933 4097.0941 4183.3933 4097.4641 4183.3733 C 4097.9341 4183.3433 4098.3141 4183.1533 4098.6041 4182.8133 C 4098.8941 4182.4733 4099.0441 4182.0633 4099.0441 4181.5533 Z  M 4098.2441 4181.5533 C 4098.2441 4182.1333 4097.8841 4182.5133 4097.3541 4182.5433 C 4096.9441 4182.5633 4096.6341 4182.5633 4096.4441 4182.5433 C 4095.8841 4182.4933 4095.5241 4182.1233 4095.5241 4181.5533 C 4095.5241 4180.9833 4095.8841 4180.6233 4096.4441 4180.5733 C 4096.6741 4180.5433 4096.9841 4180.5433 4097.3541 4180.5733 C 4097.8941 4180.6133 4098.2441 4180.9833 4098.2441 4181.5533 Z  M 4097.3841 4188.0233 C 4098.4541 4188.0233 4099.0441 4187.4333 4099.0441 4186.2933 C 4099.0441 4185.5433 4098.8341 4184.9533 4098.6141 4184.6633 C 4098.5441 4184.5533 4098.4341 4184.5033 4098.2941 4184.5033 L 4095.1941 4184.5033 C 4094.9641 4184.5033 4094.7741 4184.6933 4094.7741 4184.9133 C 4094.7741 4185.1433 4094.9541 4185.3333 4095.1941 4185.3333 L 4098.0241 4185.3333 C 4098.1741 4185.5833 4098.2441 4185.8833 4098.2441 4186.2733 C 4098.2441 4186.8033 4097.9441 4187.1833 4097.3441 4187.1833 L 4095.1941 4187.1833 C 4094.9641 4187.1833 4094.7741 4187.3833 4094.7741 4187.6033 C 4094.7741 4187.8433 4094.9541 4188.0233 4095.1941 4188.0233 L 4097.3841 4188.0233 Z  M 4094.8741 4191.4033 C 4094.9541 4191.5933 4095.0741 4191.6933 4095.2641 4191.6933 C 4095.5141 4191.6933 4095.7041 4191.4833 4095.6341 4191.1733 C 4095.5541 4190.8833 4095.5141 4190.6933 4095.5141 4190.6133 C 4095.5141 4190.2433 4095.7141 4190.0533 4096.1341 4190.0533 L 4098.0941 4190.0533 L 4098.0941 4191.1333 C 4098.0941 4191.3533 4098.2541 4191.5333 4098.4641 4191.5333 C 4098.6741 4191.5333 4098.8341 4191.3533 4098.8341 4191.1333 L 4098.8341 4190.0533 L 4099.4341 4190.0533 C 4099.6641 4190.0533 4099.8541 4189.8633 4099.8541 4189.6333 C 4099.8541 4189.4033 4099.6741 4189.2133 4099.4341 4189.2133 L 4096.1441 4189.2133 C 4095.2941 4189.2133 4094.7241 4189.6633 4094.7241 4190.5233 C 4094.7241 4190.8733 4094.7741 4191.1733 4094.8741 4191.4033 Z  M 4098.9641 4194.6533 C 4099.0141 4194.4433 4099.0441 4194.2133 4099.0441 4193.9333 C 4099.0441 4193.0833 4098.5641 4192.6133 4097.7441 4192.6133 L 4095.1841 4192.6133 C 4094.9641 4192.6133 4094.7741 4192.8033 4094.7741 4193.0233 C 4094.7741 4193.2633 4094.9641 4193.4433 4095.1841 4193.4433 L 4097.6141 4193.4433 C 4098.0341 4193.4433 4098.2341 4193.6233 4098.2441 4193.9833 C 4098.2541 4194.0933 4098.2341 4194.2033 4098.2141 4194.3333 C 4098.1841 4194.4733 4098.1741 4194.5433 4098.1741 4194.5833 C 4098.1741 4194.8333 4098.3741 4194.9733 4098.5641 4194.9733 C 4098.7641 4194.9733 4098.8941 4194.8633 4098.9641 4194.6533 Z  M 4099.0441 4197.3633 C 4099.0441 4196.8733 4098.8941 4196.4433 4098.6041 4196.1033 C 4098.3141 4195.7633 4097.9341 4195.5833 4097.4641 4195.5433 C 4097.0941 4195.5233 4096.7141 4195.5233 4096.3341 4195.5433 C 4095.8741 4195.5833 4095.4841 4195.7733 4095.1841 4196.1133 C 4094.8741 4196.4533 4094.7241 4196.8733 4094.7241 4197.3633 C 4094.7241 4197.8633 4094.8741 4198.2833 4095.1841 4198.6233 C 4095.4841 4198.9633 4095.8741 4199.1533 4096.3341 4199.1833 C 4096.7141 4199.2133 4097.0941 4199.2133 4097.4641 4199.1833 C 4097.9341 4199.1533 4098.3141 4198.9633 4098.6041 4198.6233 C 4098.8941 4198.2833 4099.0441 4197.8733 4099.0441 4197.3633 Z  M 4098.2441 4197.3633 C 4098.2441 4197.9433 4097.8841 4198.3233 4097.3541 4198.3533 C 4096.9441 4198.3733 4096.6341 4198.3733 4096.4441 4198.3533 C 4095.8841 4198.3033 4095.5241 4197.9333 4095.5241 4197.3633 C 4095.5241 4196.8033 4095.8841 4196.4333 4096.4441 4196.3833 C 4096.6741 4196.3533 4096.9841 4196.3533 4097.3541 4196.3833 C 4097.8941 4196.4233 4098.2441 4196.8033 4098.2441 4197.3633 Z  M 4099.9941 4201.1633 C 4100.2241 4201.1633 4100.4141 4200.9733 4100.4141 4200.7433 C 4100.4141 4200.5133 4100.2341 4200.3233 4099.9941 4200.3233 L 4095.1941 4200.3233 C 4094.9641 4200.3233 4094.7741 4200.5233 4094.7741 4200.7433 C 4094.7741 4200.9833 4094.9541 4201.1633 4095.1941 4201.1633 L 4099.9941 4201.1633 Z "  stroke="none" stroke-width="0.8"  /></g><g c_partid="part_pcbtext" c_etype="pinpart" c_origin="4088.126,4156.395" c_rotation="270" c_mirror="0" id="gge474" locked="0" layerid="3" c_shapetype="group" ><path c_fontsize="7.874" c_fontfamily="RubrikMedium" c_text="Board v2.0" d="M 4090.6011 4159.5332 C 4090.6011 4160.0632 4090.2811 4160.4132 4089.7711 4160.4132 C 4089.2111 4160.4132 4088.9311 4160.0932 4088.9311 4159.4732 L 4088.9311 4157.9532 L 4090.6011 4157.9532 Z  M 4092.8711 4157.9532 L 4092.8711 4159.4232 C 4092.8711 4159.9832 4092.6111 4160.2732 4092.1111 4160.2732 C 4091.6011 4160.2732 4091.3511 4159.9832 4091.3511 4159.4232 L 4091.3511 4157.9532 Z  M 4089.7211 4161.2732 C 4090.3711 4161.2732 4090.8411 4160.9432 4091.0011 4160.3932 L 4091.0111 4160.3932 C 4091.2011 4160.8732 4091.6111 4161.1132 4092.2211 4161.1132 C 4092.6311 4161.1132 4092.9711 4160.9732 4093.2411 4160.6832 C 4093.5211 4160.4132 4093.6611 4160.0132 4093.6611 4159.5232 L 4093.6611 4157.7632 C 4093.6611 4157.3532 4093.3811 4157.1132 4093.0111 4157.1132 L 4088.7711 4157.1132 C 4088.4011 4157.1132 4088.1311 4157.3532 4088.1311 4157.7632 L 4088.1311 4159.5732 C 4088.1311 4160.5832 4088.6511 4161.2732 4089.7211 4161.2732 Z  M 4092.3711 4164.0332 C 4092.3711 4163.5332 4092.2211 4163.1132 4091.9311 4162.7732 C 4091.6411 4162.4332 4091.2511 4162.2532 4090.7911 4162.2132 C 4090.4211 4162.1932 4090.0411 4162.1932 4089.6611 4162.2132 C 4089.2011 4162.2532 4088.8111 4162.4432 4088.5011 4162.7832 C 4088.2011 4163.1232 4088.0511 4163.5332 4088.0511 4164.0332 C 4088.0511 4164.5332 4088.2011 4164.9532 4088.5011 4165.2932 C 4088.8111 4165.6332 4089.2011 4165.8232 4089.6611 4165.8532 C 4090.0411 4165.8732 4090.4211 4165.8732 4090.7911 4165.8532 C 4091.2511 4165.8232 4091.6411 4165.6332 4091.9311 4165.2932 C 4092.2211 4164.9532 4092.3711 4164.5332 4092.3711 4164.0332 Z  M 4091.5711 4164.0332 C 4091.5711 4164.6032 4091.2011 4164.9932 4090.6811 4165.0232 C 4090.2711 4165.0432 4089.9611 4165.0432 4089.7611 4165.0232 C 4089.2011 4164.9732 4088.8511 4164.6032 4088.8511 4164.0332 C 4088.8511 4163.4632 4089.2011 4163.1032 4089.7611 4163.0532 C 4090.0011 4163.0232 4090.3111 4163.0232 4090.6811 4163.0532 C 4091.2111 4163.0932 4091.5711 4163.4632 4091.5711 4164.0332 Z  M 4090.8411 4170.1632 C 4091.8811 4170.1632 4092.3711 4169.5732 4092.3711 4168.5332 C 4092.3711 4168.0532 4092.2911 4167.6532 4092.1311 4167.3332 C 4092.0511 4167.1532 4091.9211 4167.0532 4091.7511 4167.0532 C 4091.4911 4167.0532 4091.3311 4167.2932 4091.4311 4167.6332 C 4091.5511 4167.9532 4091.6111 4168.2432 4091.6111 4168.4932 C 4091.6111 4169.0932 4091.3811 4169.3632 4090.8411 4169.3632 L 4090.5811 4169.3632 C 4090.6711 4168.9932 4090.7211 4168.6532 4090.7211 4168.3632 C 4090.7211 4167.8432 4090.5911 4167.4532 4090.3411 4167.1732 C 4090.0911 4166.9032 4089.7811 4166.7632 4089.4111 4166.7632 C 4088.6011 4166.7632 4088.0511 4167.3432 4088.0511 4168.3832 C 4088.0511 4169.1032 4088.2711 4169.7032 4088.4911 4170.0132 C 4088.5611 4170.1232 4088.6611 4170.1632 4088.7911 4170.1632 Z  M 4088.7811 4168.4532 C 4088.7811 4167.8932 4089.0111 4167.5832 4089.4411 4167.5832 C 4089.8111 4167.5832 4090.0311 4167.9132 4090.0311 4168.4132 C 4090.0311 4168.6832 4089.9811 4169.0132 4089.9011 4169.3632 L 4089.0211 4169.3632 C 4088.8611 4169.1632 4088.7811 4168.8532 4088.7811 4168.4532 Z  M 4092.2811 4173.3832 C 4092.3411 4173.1832 4092.3711 4172.9432 4092.3711 4172.6732 C 4092.3711 4171.8232 4091.8811 4171.3432 4091.0711 4171.3432 L 4088.5111 4171.3432 C 4088.2811 4171.3432 4088.0911 4171.5332 4088.0911 4171.7532 C 4088.0911 4172.0032 4088.2811 4172.1832 4088.5111 4172.1832 L 4090.9411 4172.1832 C 4091.3511 4172.1832 4091.5611 4172.3632 4091.5711 4172.7232 C 4091.5711 4172.8332 4091.5611 4172.9432 4091.5311 4173.0732 C 4091.5111 4173.2032 4091.5011 4173.2832 4091.5011 4173.3132 C 4091.5011 4173.5732 4091.6911 4173.7132 4091.8911 4173.7132 C 4092.0911 4173.7132 4092.2211 4173.6032 4092.2811 4173.3832 Z  M 4090.7911 4174.3132 C 4090.4111 4174.2732 4090.0411 4174.2732 4089.6711 4174.3132 C 4088.6811 4174.3932 4088.0511 4175.0632 4088.0511 4176.1032 C 4088.0511 4176.4432 4088.1011 4176.7532 4088.2011 4177.0432 C 4088.3111 4177.3332 4088.4211 4177.5632 4088.5311 4177.7132 C 4088.6111 4177.8132 4088.7111 4177.8632 4088.8511 4177.8632 L 4093.3211 4177.8632 C 4093.5711 4177.8632 4093.7511 4177.6732 4093.7511 4177.4432 C 4093.7511 4177.2132 4093.5511 4177.0232 4093.3211 4177.0232 L 4092.1411 4177.0232 C 4092.2911 4176.6832 4092.3711 4176.3432 4092.3711 4175.9932 C 4092.3711 4174.9932 4091.7911 4174.3932 4090.7911 4174.3132 Z  M 4089.7711 4175.1432 C 4090.0411 4175.1232 4090.3511 4175.1232 4090.6911 4175.1432 C 4091.2711 4175.1732 4091.5711 4175.4832 4091.5711 4176.0532 C 4091.5711 4176.4432 4091.4911 4176.7632 4091.3211 4177.0232 L 4089.1311 4177.0232 C 4089.0011 4176.8432 4088.8511 4176.4332 4088.8511 4176.1232 C 4088.8511 4175.5132 4089.1611 4175.1932 4089.7711 4175.1432 Z  M 4092.3111 4184.3132 C 4092.3111 4184.1132 4092.2011 4183.9732 4091.9811 4183.8932 L 4089.0511 4182.8732 C 4089.0111 4182.8632 4089.0111 4182.8032 4089.0511 4182.7932 L 4092.0111 4181.7632 C 4092.2011 4181.7032 4092.3211 4181.5432 4092.3211 4181.3632 C 4092.3211 4181.0532 4092.0311 4180.8432 4091.7211 4180.9632 L 4088.6811 4182.0932 C 4088.2811 4182.2332 4088.0811 4182.4932 4088.0811 4182.8332 C 4088.0811 4183.1832 4088.2811 4183.4332 4088.6911 4183.5832 L 4091.7011 4184.7132 C 4092.0111 4184.8332 4092.3111 4184.6232 4092.3111 4184.3132 Z  M 4088.6811 4185.2932 C 4088.3411 4185.2932 4088.1311 4185.5332 4088.1311 4185.8532 L 4088.1311 4188.6332 C 4088.1311 4188.8732 4088.3011 4189.0532 4088.5411 4189.0532 C 4088.7711 4189.0532 4088.9611 4188.8632 4088.9611 4188.6332 L 4088.9611 4186.1932 C 4089.0911 4186.2032 4089.2211 4186.2732 4089.3711 4186.4232 C 4089.4911 4186.5332 4089.7311 4186.8332 4090.0911 4187.3232 C 4090.5311 4187.9632 4090.8911 4188.3832 4091.1611 4188.6032 C 4091.4411 4188.8232 4091.7711 4188.9332 4092.1411 4188.9332 C 4092.5911 4188.9332 4092.9711 4188.7632 4093.2611 4188.4432 C 4093.5611 4188.1232 4093.7111 4187.6732 4093.7111 4187.0932 C 4093.7111 4186.3132 4093.3411 4185.7032 4092.8711 4185.3532 C 4092.7511 4185.2832 4092.6311 4185.2732 4092.5011 4185.3132 C 4092.2811 4185.3732 4092.1611 4185.6132 4092.2411 4185.8332 C 4092.2611 4185.9032 4092.3111 4185.9732 4092.4111 4186.0632 C 4092.7411 4186.3432 4092.9011 4186.6832 4092.9011 4187.1232 C 4092.9011 4187.7832 4092.5411 4188.0832 4092.1311 4188.0832 C 4091.8711 4188.0832 4091.6611 4187.9832 4091.4811 4187.8032 C 4091.3011 4187.6232 4090.9811 4187.2032 4090.5211 4186.5332 C 4089.9211 4185.6832 4089.3711 4185.2932 4088.6811 4185.2932 Z  M 4089.2811 4190.3832 C 4089.2811 4190.1632 4089.1011 4189.9932 4088.8711 4189.9932 L 4088.4611 4189.9932 C 4088.2311 4189.9932 4088.0511 4190.1632 4088.0511 4190.3832 C 4088.0511 4190.6132 4088.2311 4190.7932 4088.4611 4190.7932 L 4088.8711 4190.7932 C 4089.1011 4190.7932 4089.2811 4190.6032 4089.2811 4190.3832 Z  M 4090.1611 4192.3432 C 4089.5411 4192.3832 4089.0311 4192.6032 4088.6411 4192.9832 C 4088.2611 4193.3732 4088.0611 4193.8632 4088.0611 4194.4732 C 4088.0611 4195.0832 4088.2611 4195.5732 4088.6411 4195.9632 C 4089.0311 4196.3432 4089.5411 4196.5732 4090.1611 4196.6032 C 4090.6511 4196.6432 4091.1411 4196.6432 4091.6411 4196.6032 C 4092.2611 4196.5732 4092.7611 4196.3432 4093.1511 4195.9632 C 4093.5311 4195.5732 4093.7211 4195.0832 4093.7211 4194.4732 C 4093.7211 4193.8632 4093.5311 4193.3732 4093.1511 4192.9832 C 4092.7711 4192.6032 4092.2711 4192.3832 4091.6411 4192.3432 C 4091.1511 4192.3132 4090.6611 4192.3132 4090.1611 4192.3432 Z  M 4088.8711 4194.4732 C 4088.8711 4193.7232 4089.3911 4193.2532 4090.2511 4193.1932 C 4090.6111 4193.1632 4091.0411 4193.1632 4091.5611 4193.1932 C 4092.4111 4193.2332 4092.9211 4193.7232 4092.9211 4194.4732 C 4092.9211 4195.2332 4092.4111 4195.7232 4091.5611 4195.7632 C 4091.0411 4195.7932 4090.6111 4195.7932 4090.2511 4195.7632 C 4089.3911 4195.7032 4088.8711 4195.2332 4088.8711 4194.4732 Z "  stroke="none" stroke-width="0.8"  /></g><g c_partid="part_pcbtext" c_etype="" c_origin="4145.984,4118.084" c_rotation="270" c_mirror="0" id="gge523" locked="0" layerid="3" c_shapetype="group" ><path c_fontsize="4.5" c_fontfamily="" c_text="LIVE" d="M 4150.5287 4118.0879 L 4146.2287 4118.0879 M 4146.2287 4118.0879 L 4146.2287 4120.5379 M 4150.5287 4121.8879 L 4146.2287 4121.8879 M 4150.5287 4123.2379 L 4146.2287 4124.8779 M 4150.5287 4126.5079 L 4146.2287 4124.8779 M 4150.5287 4127.8579 L 4146.2287 4127.8579 M 4150.5287 4127.8579 L 4150.5287 4130.5179 M 4148.4787 4127.8579 L 4148.4787 4129.4979 M 4146.2287 4127.8579 L 4146.2287 4130.5179" fill="none"  stroke-width="0.6"  /></g><g c_partid="part_pcbtext" c_etype="" c_origin="4240.472,4110.335" c_rotation="270" c_mirror="0" id="gge527" locked="0" layerid="3" c_shapetype="group" ><path c_fontsize="4.5" c_fontfamily="" c_text="NEUTRAL" d="M 4245.0179 4110.3331 L 4240.7179 4110.3331 M 4245.0179 4110.3331 L 4240.7179 4113.2031 M 4245.0179 4113.2031 L 4240.7179 4113.2031 M 4245.0179 4114.5531 L 4240.7179 4114.5531 M 4245.0179 4114.5531 L 4245.0179 4117.2031 M 4242.9679 4114.5531 L 4242.9679 4116.1831 M 4240.7179 4114.5531 L 4240.7179 4117.2031 M 4245.0179 4118.5531 L 4241.9479 4118.5531 L 4241.3279 4118.7631 L 4240.9179 4119.1731 L 4240.7179 4119.7831 L 4240.7179 4120.1931 L 4240.9179 4120.8031 L 4241.3279 4121.2131 L 4241.9479 4121.4231 L 4245.0179 4121.4231 M 4245.0179 4124.2031 L 4240.7179 4124.2031 M 4245.0179 4122.7731 L 4245.0179 4125.6331 M 4245.0179 4126.9831 L 4240.7179 4126.9831 M 4245.0179 4126.9831 L 4245.0179 4128.8231 L 4244.8079 4129.4431 L 4244.6079 4129.6431 L 4244.1979 4129.8531 L 4243.7879 4129.8531 L 4243.3779 4129.6431 L 4243.1679 4129.4431 L 4242.9679 4128.8231 L 4242.9679 4126.9831 M 4242.9679 4128.4131 L 4240.7179 4129.8531 M 4245.0179 4132.8331 L 4240.7179 4131.2031 M 4245.0179 4132.8331 L 4240.7179 4134.4731 M 4242.1479 4131.8131 L 4242.1479 4133.8531 M 4245.0179 4135.8231 L 4240.7179 4135.8231 M 4240.7179 4135.8231 L 4240.7179 4138.2731" fill="none"  stroke-width="0.6"  /></g><g c_partid="part_pcbtext" c_etype="" c_origin="4155.152,4187.145" c_rotation="90" c_mirror="0" id="gge155" locked="0" layerid="3" c_shapetype="group" display="none"><path c_fontsize="4.5" c_fontfamily="" c_text="G6A-274P-ST-US-DC5" d="M 4151.6371 4184.0773L4151.2271 4184.2773 L4150.8171 4184.6873 L4150.6071 4185.0973 L4150.6071 4185.9173 L4150.8171 4186.3273 L4151.2271 4186.7373 L4151.6371 4186.9373 L4152.2471 4187.1473 L4153.2671 4187.1473 L4153.8871 4186.9373 L4154.2971 4186.7373 L4154.7071 4186.3273 L4154.9071 4185.9173 L4154.9071 4185.0973 L4154.7071 4184.6873 L4154.2971 4184.2773 L4153.8871 4184.0773 L4153.2671 4184.0773 M 4153.2671 4185.0973L4153.2671 4184.0773 M 4151.2271 4180.2773L4150.8171 4180.4773 L4150.6071 4181.0873 L4150.6071 4181.4973 L4150.8171 4182.1173 L4151.4271 4182.5273 L4152.4571 4182.7273 L4153.4771 4182.7273 L4154.2971 4182.5273 L4154.7071 4182.1173 L4154.9071 4181.4973 L4154.9071 4181.2973 L4154.7071 4180.6773 L4154.2971 4180.2773 L4153.6771 4180.0673 L4153.4771 4180.0673 L4152.8571 4180.2773 L4152.4571 4180.6773 L4152.2471 4181.2973 L4152.2471 4181.4973 L4152.4571 4182.1173 L4152.8571 4182.5273 L4153.4771 4182.7273 M 4150.6071 4177.0773L4154.9071 4178.7173 M 4150.6071 4177.0773L4154.9071 4175.4473 M 4153.4771 4178.1073L4153.4771 4176.0573 M 4153.0671 4174.0973L4153.0671 4170.4173 M 4151.6371 4168.8573L4151.4271 4168.8573 L4151.0171 4168.6573 L4150.8171 4168.4473 L4150.6071 4168.0373 L4150.6071 4167.2273 L4150.8171 4166.8173 L4151.0171 4166.6073 L4151.4271 4166.4073 L4151.8371 4166.4073 L4152.2471 4166.6073 L4152.8571 4167.0173 L4154.9071 4169.0673 L4154.9071 4166.1973 M 4150.6071 4161.9873L4154.9071 4164.0273 M 4150.6071 4164.8473L4150.6071 4161.9873 M 4150.6071 4158.5873L4153.4771 4160.6373 L4153.4771 4157.5673 M 4150.6071 4158.5873L4154.9071 4158.5873 M 4150.6071 4156.2173L4154.9071 4156.2173 M 4150.6071 4156.2173L4150.6071 4154.3773 L4150.8171 4153.7673 L4151.0171 4153.5573 L4151.4271 4153.3573 L4152.0471 4153.3573 L4152.4571 4153.5573 L4152.6571 4153.7673 L4152.8571 4154.3773 L4152.8571 4156.2173 M 4153.0671 4152.0073L4153.0671 4148.3273 M 4151.2271 4144.1073L4150.8171 4144.5173 L4150.6071 4145.1273 L4150.6071 4145.9473 L4150.8171 4146.5673 L4151.2271 4146.9773 L4151.6371 4146.9773 L4152.0471 4146.7673 L4152.2471 4146.5673 L4152.4571 4146.1573 L4152.8571 4144.9273 L4153.0671 4144.5173 L4153.2671 4144.3173 L4153.6771 4144.1073 L4154.2971 4144.1073 L4154.7071 4144.5173 L4154.9071 4145.1273 L4154.9071 4145.9473 L4154.7071 4146.5673 L4154.2971 4146.9773 M 4150.6071 4141.3273L4154.9071 4141.3273 M 4150.6071 4142.7573L4150.6071 4139.8973 M 4153.0671 4138.5473L4153.0671 4134.8673 M 4150.6071 4133.5173L4153.6771 4133.5173 L4154.2971 4133.3073 L4154.7071 4132.8973 L4154.9071 4132.2873 L4154.9071 4131.8773 L4154.7071 4131.2673 L4154.2971 4130.8573 L4153.6771 4130.6473 L4150.6071 4130.6473 M 4151.2271 4126.4373L4150.8171 4126.8473 L4150.6071 4127.4573 L4150.6071 4128.2773 L4150.8171 4128.8873 L4151.2271 4129.2973 L4151.6371 4129.2973 L4152.0471 4129.0973 L4152.2471 4128.8873 L4152.4571 4128.4773 L4152.8571 4127.2573 L4153.0671 4126.8473 L4153.2671 4126.6373 L4153.6771 4126.4373 L4154.2971 4126.4373 L4154.7071 4126.8473 L4154.9071 4127.4573 L4154.9071 4128.2773 L4154.7071 4128.8873 L4154.2971 4129.2973 M 4153.0671 4125.0873L4153.0671 4121.4073 M 4150.6071 4120.0573L4154.9071 4120.0573 M 4150.6071 4120.0573L4150.6071 4118.6273 L4150.8171 4118.0073 L4151.2271 4117.5973 L4151.6371 4117.3973 L4152.2471 4117.1873 L4153.2671 4117.1873 L4153.8871 4117.3973 L4154.2971 4117.5973 L4154.7071 4118.0073 L4154.9071 4118.6273 L4154.9071 4120.0573 M 4151.6371 4112.7773L4151.2271 4112.9773 L4150.8171 4113.3873 L4150.6071 4113.7973 L4150.6071 4114.6173 L4150.8171 4115.0273 L4151.2271 4115.4273 L4151.6371 4115.6373 L4152.2471 4115.8373 L4153.2671 4115.8373 L4153.8871 4115.6373 L4154.2971 4115.4273 L4154.7071 4115.0273 L4154.9071 4114.6173 L4154.9071 4113.7973 L4154.7071 4113.3873 L4154.2971 4112.9773 L4153.8871 4112.7773 M 4150.6071 4108.9673L4150.6071 4111.0173 L4152.4571 4111.2173 L4152.2471 4111.0173 L4152.0471 4110.3973 L4152.0471 4109.7873 L4152.2471 4109.1773 L4152.6571 4108.7673 L4153.2671 4108.5573 L4153.6771 4108.5573 L4154.2971 4108.7673 L4154.7071 4109.1773 L4154.9071 4109.7873 L4154.9071 4110.3973 L4154.7071 4111.0173 L4154.4971 4111.2173 L4154.0871 4111.4273 " fill="none"  stroke-width="0.6" c_note="note_name" /></g><g c_partid="part_pcbtext" c_etype="" c_origin="4143.847,4069.185" c_rotation="270" c_mirror="0" id="gge157" locked="0" layerid="3" c_shapetype="group" ><path c_fontsize="4.5" c_fontfamily="" c_text="RLY_1" d="M 4148.3882 4069.1819 L 4144.0882 4069.1819 M 4148.3882 4069.1819 L 4148.3882 4071.0219 L 4148.1882 4071.6419 L 4147.9782 4071.8419 L 4147.5682 4072.0519 L 4147.1582 4072.0519 L 4146.7482 4071.8419 L 4146.5482 4071.6419 L 4146.3382 4071.0219 L 4146.3382 4069.1819 M 4146.3382 4070.6219 L 4144.0882 4072.0519 M 4148.3882 4073.4019 L 4144.0882 4073.4019 M 4144.0882 4073.4019 L 4144.0882 4075.8519 M 4148.3882 4077.2019 L 4146.3382 4078.8419 L 4144.0882 4078.8419 M 4148.3882 4080.4719 L 4146.3382 4078.8419 M 4142.6582 4081.8219 L 4142.6582 4085.5119 M 4147.5682 4086.8619 L 4147.7782 4087.2719 L 4148.3882 4087.8819 L 4144.0882 4087.8819" fill="none"  stroke-width="0.6" c_note="note_pre" /></g><g c_partid="part_pcbtext" c_etype="" c_origin="4195.481,4117.924" c_rotation="0" c_mirror="0" id="gge536" locked="0" layerid="3" c_shapetype="group" display="none"><path c_fontsize="4.5" c_fontfamily="" c_text="6PCV-02-006" d="M 4197.94 4114L4197.73 4113.59 L4197.12 4113.38 L4196.71 4113.38 L4196.09 4113.59 L4195.69 4114.2 L4195.48 4115.22 L4195.48 4116.25 L4195.69 4117.07 L4196.09 4117.47 L4196.71 4117.68 L4196.91 4117.68 L4197.53 4117.47 L4197.94 4117.07 L4198.14 4116.45 L4198.14 4116.25 L4197.94 4115.63 L4197.53 4115.22 L4196.91 4115.02 L4196.71 4115.02 L4196.09 4115.22 L4195.69 4115.63 L4195.48 4116.25 M 4199.49 4113.38L4199.49 4117.68 M 4199.49 4113.38L4201.33 4113.38 L4201.94 4113.59 L4202.15 4113.79 L4202.35 4114.2 L4202.35 4114.82 L4202.15 4115.22 L4201.94 4115.43 L4201.33 4115.63 L4199.49 4115.63 M 4206.77 4114.41L4206.57 4114 L4206.16 4113.59 L4205.75 4113.38 L4204.93 4113.38 L4204.52 4113.59 L4204.11 4114 L4203.91 4114.41 L4203.7 4115.02 L4203.7 4116.04 L4203.91 4116.66 L4204.11 4117.07 L4204.52 4117.47 L4204.93 4117.68 L4205.75 4117.68 L4206.16 4117.47 L4206.57 4117.07 L4206.77 4116.66 M 4208.12 4113.38L4209.76 4117.68 M 4211.39 4113.38L4209.76 4117.68 M 4212.74 4115.84L4216.43 4115.84 M 4219 4113.38L4218.39 4113.59 L4217.98 4114.2 L4217.78 4115.22 L4217.78 4115.84 L4217.98 4116.86 L4218.39 4117.47 L4219 4117.68 L4219.41 4117.68 L4220.03 4117.47 L4220.44 4116.86 L4220.64 4115.84 L4220.64 4115.22 L4220.44 4114.2 L4220.03 4113.59 L4219.41 4113.38 L4219 4113.38 M 4222.19 4114.41L4222.19 4114.2 L4222.4 4113.79 L4222.6 4113.59 L4223.01 4113.38 L4223.83 4113.38 L4224.24 4113.59 L4224.44 4113.79 L4224.65 4114.2 L4224.65 4114.61 L4224.44 4115.02 L4224.04 4115.63 L4221.99 4117.68 L4224.85 4117.68 M 4226.2 4115.84L4229.89 4115.84 M 4232.46 4113.38L4231.85 4113.59 L4231.44 4114.2 L4231.24 4115.22 L4231.24 4115.84 L4231.44 4116.86 L4231.85 4117.47 L4232.46 4117.68 L4232.87 4117.68 L4233.49 4117.47 L4233.89 4116.86 L4234.1 4115.84 L4234.1 4115.22 L4233.89 4114.2 L4233.49 4113.59 L4232.87 4113.38 L4232.46 4113.38 M 4236.68 4113.38L4236.06 4113.59 L4235.65 4114.2 L4235.45 4115.22 L4235.45 4115.84 L4235.65 4116.86 L4236.06 4117.47 L4236.68 4117.68 L4237.09 4117.68 L4237.7 4117.47 L4238.11 4116.86 L4238.31 4115.84 L4238.31 4115.22 L4238.11 4114.2 L4237.7 4113.59 L4237.09 4113.38 L4236.68 4113.38 M 4242.12 4114L4241.91 4113.59 L4241.3 4113.38 L4240.89 4113.38 L4240.28 4113.59 L4239.87 4114.2 L4239.66 4115.22 L4239.66 4116.25 L4239.87 4117.07 L4240.28 4117.47 L4240.89 4117.68 L4241.09 4117.68 L4241.71 4117.47 L4242.12 4117.07 L4242.32 4116.45 L4242.32 4116.25 L4242.12 4115.63 L4241.71 4115.22 L4241.09 4115.02 L4240.89 4115.02 L4240.28 4115.22 L4239.87 4115.63 L4239.66 4116.25 " fill="none"  stroke-width="0.6" c_note="note_name" /></g><g c_partid="part_pcbtext" c_etype="" c_origin="4236.535,4049.5" c_rotation="270" c_mirror="0" id="gge538" locked="0" layerid="3" c_shapetype="group" ><path c_fontsize="4.5" c_fontfamily="" c_text="IN" d="M 4241.0754 4049.5046L4236.7854 4049.5046 M 4241.0754 4050.8546L4236.7854 4050.8546 M 4241.0754 4050.8546L4236.7854 4053.7146 M 4241.0754 4053.7146L4236.7854 4053.7146 " fill="none"  stroke-width="0.6" c_note="note_pre" /></g><g c_partid="part_pcbtext" c_etype="" c_origin="4149.738,4135.471" c_rotation="0" c_mirror="0" id="gge555" locked="0" layerid="3" c_shapetype="group" display="none"><path c_fontsize="4.5" c_fontfamily="" c_text="6PCV-02-006" d="M 4152.19 4131.54L4151.99 4131.14 L4151.37 4130.93 L4150.97 4130.93 L4150.35 4131.14 L4149.94 4131.75 L4149.74 4132.77 L4149.74 4133.79 L4149.94 4134.61 L4150.35 4135.02 L4150.97 4135.23 L4151.17 4135.23 L4151.78 4135.02 L4152.19 4134.61 L4152.4 4134 L4152.4 4133.79 L4152.19 4133.18 L4151.78 4132.77 L4151.17 4132.57 L4150.97 4132.57 L4150.35 4132.77 L4149.94 4133.18 L4149.74 4133.79 M 4153.75 4130.93L4153.75 4135.23 M 4153.75 4130.93L4155.59 4130.93 L4156.2 4131.14 L4156.41 4131.34 L4156.61 4131.75 L4156.61 4132.36 L4156.41 4132.77 L4156.2 4132.98 L4155.59 4133.18 L4153.75 4133.18 M 4161.03 4131.95L4160.82 4131.54 L4160.42 4131.14 L4160.01 4130.93 L4159.19 4130.93 L4158.78 4131.14 L4158.37 4131.54 L4158.17 4131.95 L4157.96 4132.57 L4157.96 4133.59 L4158.17 4134.2 L4158.37 4134.61 L4158.78 4135.02 L4159.19 4135.23 L4160.01 4135.23 L4160.42 4135.02 L4160.82 4134.61 L4161.03 4134.2 M 4162.38 4130.93L4164.02 4135.23 M 4165.65 4130.93L4164.02 4135.23 M 4167 4133.39L4170.68 4133.39 M 4173.26 4130.93L4172.65 4131.14 L4172.24 4131.75 L4172.03 4132.77 L4172.03 4133.39 L4172.24 4134.41 L4172.65 4135.02 L4173.26 4135.23 L4173.67 4135.23 L4174.28 4135.02 L4174.69 4134.41 L4174.9 4133.39 L4174.9 4132.77 L4174.69 4131.75 L4174.28 4131.14 L4173.67 4130.93 L4173.26 4130.93 M 4176.45 4131.95L4176.45 4131.75 L4176.66 4131.34 L4176.86 4131.14 L4177.27 4130.93 L4178.09 4130.93 L4178.5 4131.14 L4178.7 4131.34 L4178.91 4131.75 L4178.91 4132.16 L4178.7 4132.57 L4178.29 4133.18 L4176.25 4135.23 L4179.11 4135.23 M 4180.46 4133.39L4184.14 4133.39 M 4186.72 4130.93L4186.11 4131.14 L4185.7 4131.75 L4185.49 4132.77 L4185.49 4133.39 L4185.7 4134.41 L4186.11 4135.02 L4186.72 4135.23 L4187.13 4135.23 L4187.74 4135.02 L4188.15 4134.41 L4188.36 4133.39 L4188.36 4132.77 L4188.15 4131.75 L4187.74 4131.14 L4187.13 4130.93 L4186.72 4130.93 M 4190.93 4130.93L4190.32 4131.14 L4189.91 4131.75 L4189.71 4132.77 L4189.71 4133.39 L4189.91 4134.41 L4190.32 4135.02 L4190.93 4135.23 L4191.34 4135.23 L4191.96 4135.02 L4192.37 4134.41 L4192.57 4133.39 L4192.57 4132.77 L4192.37 4131.75 L4191.96 4131.14 L4191.34 4130.93 L4190.93 4130.93 M 4196.37 4131.54L4196.17 4131.14 L4195.56 4130.93 L4195.15 4130.93 L4194.53 4131.14 L4194.12 4131.75 L4193.92 4132.77 L4193.92 4133.79 L4194.12 4134.61 L4194.53 4135.02 L4195.15 4135.23 L4195.35 4135.23 L4195.97 4135.02 L4196.37 4134.61 L4196.58 4134 L4196.58 4133.79 L4196.37 4133.18 L4195.97 4132.77 L4195.35 4132.57 L4195.15 4132.57 L4194.53 4132.77 L4194.12 4133.18 L4193.92 4133.79 " fill="none"  stroke-width="0.6" c_note="note_name" /></g><g c_partid="part_pcbtext" c_etype="" c_origin="4236.535,4167.61" c_rotation="270" c_mirror="0" id="gge557" locked="0" layerid="3" c_shapetype="group" ><path c_fontsize="4.5" c_fontfamily="" c_text="OUT" d="M 4241.0757 4168.8349L4240.8757 4168.4249 L4240.4657 4168.0149 L4240.0557 4167.8149 L4239.4357 4167.6149 L4238.4157 4167.6149 L4237.8057 4167.8149 L4237.3957 4168.0149 L4236.9857 4168.4249 L4236.7857 4168.8349 L4236.7857 4169.6549 L4236.9857 4170.0649 L4237.3957 4170.4749 L4237.8057 4170.6749 L4238.4157 4170.8849 L4239.4357 4170.8849 L4240.0557 4170.6749 L4240.4657 4170.4749 L4240.8757 4170.0649 L4241.0757 4169.6549 L4241.0757 4168.8349 M 4241.0757 4172.2349L4238.0057 4172.2349 L4237.3957 4172.4349 L4236.9857 4172.8449 L4236.7857 4173.4649 L4236.7857 4173.8649 L4236.9857 4174.4849 L4237.3957 4174.8949 L4238.0057 4175.0949 L4241.0757 4175.0949 M 4241.0757 4177.8749L4236.7857 4177.8749 M 4241.0757 4176.4449L4241.0757 4179.3149 " fill="none"  stroke-width="0.6" c_note="note_pre" /></g><g c_partid="part_pcbtext" c_etype="" c_origin="4101.702,4076.345" c_rotation="0" c_mirror="0" id="gge279" locked="0" layerid="3" c_shapetype="group" display="none"><path c_fontsize="4.5" c_fontfamily="" c_text="1N4148" d="M 4101.7022 4072.6251 L 4102.1122 4072.4151 L 4102.7222 4071.8051 L 4102.7222 4076.0951 M 4104.0722 4071.8051 L 4104.0722 4076.0951 M 4104.0722 4071.8051 L 4106.9422 4076.0951 M 4106.9422 4071.8051 L 4106.9422 4076.0951 M 4110.3322 4071.8051 L 4108.2922 4074.6651 L 4111.3522 4074.6651 M 4110.3322 4071.8051 L 4110.3322 4076.0951 M 4112.7022 4072.6251 L 4113.1122 4072.4151 L 4113.7322 4071.8051 L 4113.7322 4076.0951 M 4117.1222 4071.8051 L 4115.0822 4074.6651 L 4118.1522 4074.6651 M 4117.1222 4071.8051 L 4117.1222 4076.0951 M 4120.5222 4071.8051 L 4119.9022 4072.0051 L 4119.7022 4072.4151 L 4119.7022 4072.8251 L 4119.9022 4073.2351 L 4120.3122 4073.4451 L 4121.1322 4073.6451 L 4121.7522 4073.8451 L 4122.1522 4074.2551 L 4122.3622 4074.6651 L 4122.3622 4075.2851 L 4122.1522 4075.6951 L 4121.9522 4075.8951 L 4121.3422 4076.0951 L 4120.5222 4076.0951 L 4119.9022 4075.8951 L 4119.7022 4075.6951 L 4119.5022 4075.2851 L 4119.5022 4074.6651 L 4119.7022 4074.2551 L 4120.1122 4073.8451 L 4120.7222 4073.6451 L 4121.5422 4073.4451 L 4121.9522 4073.2351 L 4122.1522 4072.8251 L 4122.1522 4072.4151 L 4121.9522 4072.0051 L 4121.3422 4071.8051 L 4120.5222 4071.8051" fill="none"  stroke-width="0.6" c_note="note_name" /></g><g c_partid="part_pcbtext" c_etype="" c_origin="4143.019,4060.966" c_rotation="0" c_mirror="0" id="gge281" locked="0" layerid="3" c_shapetype="group" ><path c_fontsize="4.5" c_fontfamily="" c_text="D1" d="M 4143.0222 4056.4251 L 4143.0222 4060.7251 M 4143.0222 4056.4251 L 4144.4522 4056.4251 L 4145.0622 4056.6251 L 4145.4722 4057.0351 L 4145.6822 4057.4451 L 4145.8822 4058.0651 L 4145.8822 4059.0851 L 4145.6822 4059.6951 L 4145.4722 4060.1051 L 4145.0622 4060.5151 L 4144.4522 4060.7251 L 4143.0222 4060.7251 M 4147.2322 4057.2451 L 4147.6422 4057.0351 L 4148.2522 4056.4251 L 4148.2522 4060.7251" fill="none"  stroke-width="0.6" c_note="note_pre" /></g><g c_partid="part_pcbtext" c_etype="" c_origin="4109.845,4149.126" c_rotation="90" c_mirror="0" id="gge111" locked="0" layerid="3" c_shapetype="group" display="none"><path c_fontsize="4.5" c_fontfamily="" c_text="300S-6P" d="M 4105.3053 4148.716 L 4105.3053 4146.466 L 4106.9453 4147.696 L 4106.9453 4147.076 L 4107.1453 4146.676 L 4107.3453 4146.466 L 4107.9653 4146.266 L 4108.3753 4146.266 L 4108.9853 4146.466 L 4109.3953 4146.876 L 4109.5953 4147.486 L 4109.5953 4148.106 L 4109.3953 4148.716 L 4109.1953 4148.926 L 4108.7853 4149.126 M 4105.3053 4143.686 L 4105.5053 4144.296 L 4106.1253 4144.706 L 4107.1453 4144.916 L 4107.7553 4144.916 L 4108.7853 4144.706 L 4109.3953 4144.296 L 4109.5953 4143.686 L 4109.5953 4143.276 L 4109.3953 4142.666 L 4108.7853 4142.256 L 4107.7553 4142.046 L 4107.1453 4142.046 L 4106.1253 4142.256 L 4105.5053 4142.666 L 4105.3053 4143.276 L 4105.3053 4143.686 M 4105.3053 4139.476 L 4105.5053 4140.086 L 4106.1253 4140.496 L 4107.1453 4140.696 L 4107.7553 4140.696 L 4108.7853 4140.496 L 4109.3953 4140.086 L 4109.5953 4139.476 L 4109.5953 4139.066 L 4109.3953 4138.446 L 4108.7853 4138.036 L 4107.7553 4137.836 L 4107.1453 4137.836 L 4106.1253 4138.036 L 4105.5053 4138.446 L 4105.3053 4139.066 L 4105.3053 4139.476 M 4105.9153 4133.626 L 4105.5053 4134.026 L 4105.3053 4134.646 L 4105.3053 4135.466 L 4105.5053 4136.076 L 4105.9153 4136.486 L 4106.3253 4136.486 L 4106.7353 4136.276 L 4106.9453 4136.076 L 4107.1453 4135.666 L 4107.5553 4134.436 L 4107.7553 4134.026 L 4107.9653 4133.826 L 4108.3753 4133.626 L 4108.9853 4133.626 L 4109.3953 4134.026 L 4109.5953 4134.646 L 4109.5953 4135.466 L 4109.3953 4136.076 L 4108.9853 4136.486 M 4107.7553 4132.276 L 4107.7553 4128.586 M 4105.9153 4124.786 L 4105.5053 4124.986 L 4105.3053 4125.606 L 4105.3053 4126.016 L 4105.5053 4126.626 L 4106.1253 4127.036 L 4107.1453 4127.236 L 4108.1653 4127.236 L 4108.9853 4127.036 L 4109.3953 4126.626 L 4109.5953 4126.016 L 4109.5953 4125.806 L 4109.3953 4125.196 L 4108.9853 4124.786 L 4108.3753 4124.576 L 4108.1653 4124.576 L 4107.5553 4124.786 L 4107.1453 4125.196 L 4106.9453 4125.806 L 4106.9453 4126.016 L 4107.1453 4126.626 L 4107.5553 4127.036 L 4108.1653 4127.236 M 4105.3053 4123.226 L 4109.5953 4123.226 M 4105.3053 4123.226 L 4105.3053 4121.386 L 4105.5053 4120.776 L 4105.7153 4120.576 L 4106.1253 4120.366 L 4106.7353 4120.366 L 4107.1453 4120.576 L 4107.3453 4120.776 L 4107.5553 4121.386 L 4107.5553 4123.226" fill="none"  stroke-width="0.6" c_note="note_name" /></g><g c_partid="part_pcbtext" c_etype="" c_origin="4063.307,4088.87" c_rotation="0" c_mirror="0" id="gge113" locked="0" layerid="3" c_shapetype="group" ><path c_fontsize="4.5" c_fontfamily="" c_text="CHAIN" d="M 4066.3772 4085.3501 L 4066.1672 4084.9401 L 4065.7572 4084.5301 L 4065.3572 4084.3301 L 4064.5372 4084.3301 L 4064.1272 4084.5301 L 4063.7172 4084.9401 L 4063.5072 4085.3501 L 4063.3072 4085.9701 L 4063.3072 4086.9901 L 4063.5072 4087.6001 L 4063.7172 4088.0101 L 4064.1272 4088.4201 L 4064.5372 4088.6201 L 4065.3572 4088.6201 L 4065.7572 4088.4201 L 4066.1672 4088.0101 L 4066.3772 4087.6001 M 4067.7272 4084.3301 L 4067.7272 4088.6201 M 4070.5872 4084.3301 L 4070.5872 4088.6201 M 4067.7272 4086.3701 L 4070.5872 4086.3701 M 4073.5772 4084.3301 L 4071.9372 4088.6201 M 4073.5772 4084.3301 L 4075.2072 4088.6201 M 4072.5572 4087.1901 L 4074.5972 4087.1901 M 4076.5572 4084.3301 L 4076.5572 4088.6201 M 4077.9072 4084.3301 L 4077.9072 4088.6201 M 4077.9072 4084.3301 L 4080.7772 4088.6201 M 4080.7772 4084.3301 L 4080.7772 4088.6201" fill="none"  stroke-width="0.6" c_note="note_pre" /></g><path d="M 4114.8772 4157.2882 L 4114.7678 4157.188 L 4110.8423 4157.188 L 4106.9168 4157.188 L 4106.8178 4157.2986 L 4106.7186 4157.4092 L 4106.7186 4158.7843 L 4106.7186 4160.1593 L 4106.7805 4160.2763 L 4106.8427 4160.3933 L 4108.0965 4160.3933 L 4109.3502 4160.3933 L 4109.3676 4162.4465 L 4109.3847 4164.4998 L 4109.4625 4164.5783 L 4109.5405 4164.6568 L 4110.5908 4164.6568 L 4111.6413 4164.6568 L 4111.7262 4164.5395 L 4111.8113 4164.422 L 4111.8113 4162.4077 L 4111.8113 4160.3933 L 4112.1708 4160.3933 L 4112.5302 4160.3933 L 4112.5302 4162.7686 L 4112.5302 4165.144 L 4112.6234 4165.2784 L 4112.7168 4165.4128 L 4113.7897 4165.4128 L 4114.8627 4165.4128 L 4114.9247 4165.2959 L 4114.9867 4165.1788 L 4114.9867 4161.2835 L 4114.9867 4157.3882 L 4114.8772 4157.2882 M 4114.852 4169.2609 L 4114.7172 4169.1109 L 4110.8347 4167.7758 C 4108.6994 4167.0417 4106.9422 4166.4408 4106.9297 4166.4408 C 4106.9172 4166.4408 4106.8646 4166.4836 4106.8128 4166.5359 L 4106.7186 4166.6309 L 4106.7186 4167.8933 L 4106.7186 4169.1556 L 4106.8534 4169.3136 L 4106.9882 4169.4717 L 4108.486 4169.9515 C 4109.3099 4170.2153 4110.5703 4170.6129 4111.287 4170.8351 C 4112.0038 4171.0573 4112.5902 4171.2561 4112.5902 4171.2771 C 4112.5902 4171.298 4112.206 4171.4335 4111.7363 4171.5782 C 4109.8722 4172.1526 4107.1296 4173.0331 4107.0203 4173.0922 C 4106.9565 4173.1266 4106.8626 4173.215 4106.8116 4173.2887 L 4106.7186 4173.4226 L 4106.7186 4174.6748 L 4106.7186 4175.927 L 4106.8128 4176.0221 C 4106.8646 4176.0743 4106.9177 4176.1171 4106.9308 4176.1171 C 4106.9441 4176.1171 4107.9464 4175.774 4109.1584 4175.3547 C 4110.3704 4174.9354 4112.117 4174.3331 4113.0396 4174.0162 L 4114.7172 4173.44 L 4114.852 4173.2936 L 4114.9867 4173.147 L 4114.9867 4171.2789 L 4114.9867 4169.411 L 4114.852 4169.2609 M 4114.8772 4178.092 L 4114.7678 4177.9919 L 4110.8423 4177.9919 L 4106.9168 4177.9919 L 4106.8178 4178.1025 L 4106.7186 4178.2131 L 4106.7186 4181.8174 L 4106.7186 4185.4218 L 4106.8128 4185.5168 L 4106.907 4185.6118 L 4107.9437 4185.6118 L 4108.9806 4185.6118 L 4109.0471 4185.531 L 4109.1136 4185.4502 L 4109.1294 4183.3388 L 4109.1452 4181.2274 L 4111.9912 4181.2121 L 4114.837 4181.1968 L 4114.9118 4181.0948 L 4114.9867 4180.9926 L 4114.9867 4179.5923 L 4114.9867 4178.192 L 4114.8772 4178.092 M 4114.9221 4187.7135 L 4114.861 4187.6076 L 4110.8519 4187.6076 L 4106.8427 4187.6076 L 4106.7805 4187.7246 L 4106.7186 4187.8415 L 4106.7186 4189.1667 L 4106.7186 4190.4918 L 4106.8267 4190.5906 L 4106.9349 4190.6893 L 4108.1788 4190.7058 L 4109.4225 4190.7221 L 4108.1072 4191.7966 L 4106.7919 4192.8712 L 4106.7561 4193.0061 C 4106.7362 4193.0805 4106.7199 4193.8773 4106.7194 4194.7771 L 4106.7186 4196.413 L 4106.7904 4196.4855 C 4106.83 4196.5255 4106.9096 4196.5581 4106.9672 4196.5581 L 4107.0721 4196.5581 L 4108.8576 4195.1215 C 4109.8395 4194.3313 4110.7567 4193.5948 4110.896 4193.4849 L 4111.1487 4193.285 L 4112.8731 4194.7155 C 4113.8213 4195.5023 4114.632 4196.1604 4114.6745 4196.1779 C 4114.7168 4196.1956 4114.8045 4196.1616 4114.8692 4196.1025 L 4114.9867 4195.9951 L 4114.9867 4194.4651 L 4114.9867 4192.9352 L 4114.9193 4192.7859 L 4114.852 4192.6364 L 4113.663 4191.6792 L 4112.4741 4190.7221 L 4113.6223 4190.7057 L 4114.7705 4190.6892 L 4114.8786 4190.5905 L 4114.9867 4190.4918 L 4114.985 4189.1555 L 4114.9831 4187.8192 L 4114.9221 4187.7135" id="gge475" stroke="none" layerid="3"></path><path d="M 4149.9213 4173.0016 C 4148.6795 4168.4173 4145.8347 4164.9055 4141.6625 4162.8068 C 4132.9719 4158.4352 4122.4472 4162.9341 4119.4796 4172.2893 C 4118.6584 4174.8783 4118.6584 4178.9285 4119.4796 4181.5174 C 4121.0632 4186.5095 4124.9992 4190.4421 4129.981 4192.0098 C 4132.576 4192.8264 4136.6337 4192.825 4139.2199 4192.0065 C 4144.1613 4190.4427 4148.1347 4186.5111 4149.6835 4181.6533 C 4150.4853 4179.1386 4150.5865 4175.4569 4149.9213 4173.0016 M 4141.3859 4180.286 C 4140.8725 4180.7115 4127.9642 4185.0852 4127.701 4184.9228 C 4127.3404 4184.7001 4127.427 4180.7541 4127.8032 4180.2757 C 4127.9846 4180.0449 4130.1822 4179.2293 4132.6866 4178.4632 C 4135.1911 4177.6971 4137.2401 4176.9879 4137.2401 4176.8871 C 4137.2401 4176.7863 4136.7947 4176.5835 4136.2502 4176.4363 C 4132.7736 4175.4967 4128.082 4173.882 4127.8032 4173.529 C 4127.427 4173.0527 4127.3402 4169.1067 4127.701 4168.8839 C 4127.9642 4168.7215 4140.8725 4173.0951 4141.3859 4173.5207 C 4141.8687 4173.9209 4141.8687 4179.8858 4141.3859 4180.286" id="gge476" stroke="none" layerid="3"></path><polyline points="4256.2205 4206.9803 4063.3071 4206.9803" stroke-width="1"  stroke-linecap="round" fill="none" layerid="10" net="" id="gge350" locked="0" /><polyline points="4063.3071 4041.626 4256.2204 4041.626" stroke-width="1"  stroke-linecap="round" fill="none" layerid="10" net="" id="gge346" locked="0" /><polyline points="4264.0945 4049.5 4264.0945 4199.1063" stroke-width="1"  stroke-linecap="round" fill="none" layerid="10" net="" id="gge348" locked="0" /><polyline points="4055.4331 4199.1063 4055.4331 4049.5" stroke-width="1"  stroke-linecap="round" fill="none" layerid="10" net="" id="gge352" locked="0" /><path d="M 4264.0945 4199.1063 A 7.874 7.874 0 0 1 4256.2205 4206.9803" locked="0"  fill="none" stroke-width="1" c_helper_type="arc2" net="" layerid="10" id="gge349" /><path d="M 4256.2205 4041.626 A 7.874 7.874 0 0 1 4264.0945 4049.5" locked="0"  fill="none" stroke-width="1" c_helper_type="arc2" net="" layerid="10" id="gge347" /><path d="M 4055.4331 4049.5 A 7.874 7.874 0 0 1 4063.3071 4041.626" locked="0"  fill="none" stroke-width="1" c_helper_type="arc2" net="" layerid="10" id="gge353" /><path d="M 4063.3071 4206.9803 A 7.874 7.874 0 0 1 4055.4331 4199.1063" locked="0"  fill="none" stroke-width="1" c_helper_type="arc2" net="" layerid="10" id="gge351" /><polyline points="4155.48 4129.93 4236.578 4129.93 4236.578 4199.93 4155.48 4199.93 4155.48 4129.93" stroke-width="0.787"  stroke-linecap="round" fill="none" layerid="12" net="" id="gge726" locked="0" /><polyline points="4151.543 4125.993 4240.515 4125.993 4240.515 4203.867 4151.543 4203.867 4151.543 4125.993" stroke-width="0.394"  stroke-linecap="round" fill="none" layerid="12" net="" id="gge728" locked="0" /><polyline points="4236.58 4118.68 4155.482 4118.68 4155.482 4048.68 4236.58 4048.68 4236.58 4118.68" stroke-width="0.787"  stroke-linecap="round" fill="none" layerid="12" net="" id="gge743" locked="0" /><polyline points="4240.517 4122.617 4151.545 4122.617 4151.545 4044.743 4240.517 4044.743 4240.517 4122.617" stroke-width="0.394"  stroke-linecap="round" fill="none" layerid="12" net="" id="gge745" locked="0" /><path d="M4055.4331,4226.6654L4120.9002,4226.6654M4198.6274,4226.6654L4264.0945,4226.6654M4061.4331,4228.1654L4055.4331,4226.6654L4061.4331,4225.1654M4258.0945,4228.1654L4264.0945,4226.6654L4258.0945,4225.1654M 4128.35 4216.57L4123.81 4216.57 L4123.35 4220.67 L4123.81 4220.21 L4125.17 4219.76 L4126.54 4219.76 L4127.9 4220.21 L4128.81 4221.12 L4129.26 4222.48 L4129.26 4223.39 L4128.81 4224.76 L4127.9 4225.67 L4126.54 4226.12 L4125.17 4226.12 L4123.81 4225.67 L4123.35 4225.21 L4122.9 4224.3 M 4133.17 4216.57L4138.17 4216.57 L4135.45 4220.21 L4136.81 4220.21 L4137.72 4220.67 L4138.17 4221.12 L4138.63 4222.48 L4138.63 4223.39 L4138.17 4224.76 L4137.26 4225.67 L4135.9 4226.12 L4134.54 4226.12 L4133.17 4225.67 L4132.72 4225.21 L4132.26 4224.3 M 4142.08 4223.85L4141.63 4224.3 L4142.08 4224.76 L4142.54 4224.3 L4142.08 4223.85 M 4148.26 4216.57L4146.9 4217.03 L4145.99 4218.39 L4145.54 4220.67 L4145.54 4222.03 L4145.99 4224.3 L4146.9 4225.67 L4148.26 4226.12 L4149.17 4226.12 L4150.54 4225.67 L4151.45 4224.3 L4151.9 4222.03 L4151.9 4220.67 L4151.45 4218.39 L4150.54 4217.03 L4149.17 4216.57 L4148.26 4216.57 M 4157.63 4216.57L4156.26 4217.03 L4155.35 4218.39 L4154.9 4220.67 L4154.9 4222.03 L4155.35 4224.3 L4156.26 4225.67 L4157.63 4226.12 L4158.54 4226.12 L4159.9 4225.67 L4160.81 4224.3 L4161.26 4222.03 L4161.26 4220.67 L4160.81 4218.39 L4159.9 4217.03 L4158.54 4216.57 L4157.63 4216.57 M 4166.99 4216.57L4165.63 4217.03 L4164.72 4218.39 L4164.26 4220.67 L4164.26 4222.03 L4164.72 4224.3 L4165.63 4225.67 L4166.99 4226.12 L4167.9 4226.12 L4169.26 4225.67 L4170.17 4224.3 L4170.63 4222.03 L4170.63 4220.67 L4170.17 4218.39 L4169.26 4217.03 L4167.9 4216.57 L4166.99 4216.57 M 4173.63 4219.76L4173.63 4226.12 M 4173.63 4221.57L4174.99 4220.21 L4175.9 4219.76 L4177.26 4219.76 L4178.17 4220.21 L4178.63 4221.57 L4178.63 4226.12 M 4178.63 4221.57L4179.99 4220.21 L4180.9 4219.76 L4182.26 4219.76 L4183.17 4220.21 L4183.63 4221.57 L4183.63 4226.12 M 4186.63 4219.76L4186.63 4226.12 M 4186.63 4221.57L4187.99 4220.21 L4188.9 4219.76 L4190.26 4219.76 L4191.17 4220.21 L4191.63 4221.57 L4191.63 4226.12 M 4191.63 4221.57L4192.99 4220.21 L4193.9 4219.76 L4195.26 4219.76 L4196.17 4220.21 L4196.63 4221.57 L4196.63 4226.12 M 4055.4331 4199.1063 4055.4331 4236.6654 M 4264.0945 4201.1868 4264.0945 4236.6654" stroke-width="0.4" fill="none" c_shapetype="group" layerid="12" c_fontsize="" id="gge621" locked="0" measuring_type="level"/><path d="M4287.0072,4041.626L4287.0072,4085.2122M4287.0072,4163.3941L4287.0072,4206.9803M4285.5072,4047.626L4287.0072,4041.626L4288.5072,4047.626M4285.5072,4200.9803L4287.0072,4206.9803L4288.5072,4200.9803M 4276.9131 4156.8512L4283.2831 4161.3912 L4283.2831 4154.5712 M 4276.9131 4156.8512L4286.4631 4156.8512 M 4279.1931 4151.1212L4278.7331 4151.1212 L4277.8231 4150.6712 L4277.3731 4150.2112 L4276.9131 4149.3012 L4276.9131 4147.4812 L4277.3731 4146.5712 L4277.8231 4146.1212 L4278.7331 4145.6712 L4279.6431 4145.6712 L4280.5531 4146.1212 L4281.9131 4147.0312 L4286.4631 4151.5712 L4286.4631 4145.2112 M 4284.1931 4141.7612L4284.6431 4142.2112 L4285.0931 4141.7612 L4284.6431 4141.3012 L4284.1931 4141.7612 M 4276.9131 4135.5712L4277.3731 4136.9412 L4278.7331 4137.8512 L4281.0031 4138.3012 L4282.3731 4138.3012 L4284.6431 4137.8512 L4286.0031 4136.9412 L4286.4631 4135.5712 L4286.4631 4134.6712 L4286.0031 4133.3012 L4284.6431 4132.3912 L4282.3731 4131.9412 L4281.0031 4131.9412 L4278.7331 4132.3912 L4277.3731 4133.3012 L4276.9131 4134.6712 L4276.9131 4135.5712 M 4276.9131 4126.2112L4277.3731 4127.5712 L4278.7331 4128.4812 L4281.0031 4128.9412 L4282.3731 4128.9412 L4284.6431 4128.4812 L4286.0031 4127.5712 L4286.4631 4126.2112 L4286.4631 4125.3012 L4286.0031 4123.9412 L4284.6431 4123.0312 L4282.3731 4122.5712 L4281.0031 4122.5712 L4278.7331 4123.0312 L4277.3731 4123.9412 L4276.9131 4125.3012 L4276.9131 4126.2112 M 4276.9131 4116.8512L4277.3731 4118.2112 L4278.7331 4119.1212 L4281.0031 4119.5712 L4282.3731 4119.5712 L4284.6431 4119.1212 L4286.0031 4118.2112 L4286.4631 4116.8512 L4286.4631 4115.9412 L4286.0031 4114.5712 L4284.6431 4113.6712 L4282.3731 4113.2112 L4281.0031 4113.2112 L4278.7331 4113.6712 L4277.3731 4114.5712 L4276.9131 4115.9412 L4276.9131 4116.8512 M 4280.0931 4110.2112L4286.4631 4110.2112 M 4281.9131 4110.2112L4280.5531 4108.8512 L4280.0931 4107.9412 L4280.0931 4106.5712 L4280.5531 4105.6712 L4281.9131 4105.2112 L4286.4631 4105.2112 M 4281.9131 4105.2112L4280.5531 4103.8512 L4280.0931 4102.9412 L4280.0931 4101.5712 L4280.5531 4100.6712 L4281.9131 4100.2112 L4286.4631 4100.2112 M 4280.0931 4097.2112L4286.4631 4097.2112 M 4281.9131 4097.2112L4280.5531 4095.8512 L4280.0931 4094.9412 L4280.0931 4093.5712 L4280.5531 4092.6712 L4281.9131 4092.2112 L4286.4631 4092.2112 M 4281.9131 4092.2112L4280.5531 4090.8512 L4280.0931 4089.9412 L4280.0931 4088.5712 L4280.5531 4087.6712 L4281.9131 4087.2112 L4286.4631 4087.2112 M 4264.0945 4041.626 4297.0072 4041.626 M 4256.2205 4206.9803 4297.0072 4206.9803" stroke-width="0.4" fill="none" c_shapetype="group" layerid="12" c_fontsize="" id="gge620" locked="0" measuring_type="vertical"/><path d="M4045.8961,4053.437L4045.8961,4085.6668M4045.8961,4162.9395L4045.8961,4195.1693M4044.3961,4059.437L4045.8961,4053.437L4047.3961,4059.437M4044.3961,4189.1693L4045.8961,4195.1693L4047.3961,4189.1693M 4035.8066 4160.0256L4035.8066 4155.0256 L4039.4366 4157.7556 L4039.4366 4156.3956 L4039.8966 4155.4856 L4040.3466 4155.0256 L4041.7166 4154.5756 L4042.6266 4154.5756 L4043.9866 4155.0256 L4044.8966 4155.9356 L4045.3466 4157.3056 L4045.3466 4158.6656 L4044.8966 4160.0256 L4044.4366 4160.4856 L4043.5366 4160.9356 M 4037.1666 4146.1256L4036.2566 4146.5756 L4035.8066 4147.9356 L4035.8066 4148.8456 L4036.2566 4150.2156 L4037.6266 4151.1256 L4039.8966 4151.5756 L4042.1666 4151.5756 L4043.9866 4151.1256 L4044.8966 4150.2156 L4045.3466 4148.8456 L4045.3466 4148.3956 L4044.8966 4147.0256 L4043.9866 4146.1256 L4042.6266 4145.6656 L4042.1666 4145.6656 L4040.8066 4146.1256 L4039.8966 4147.0256 L4039.4366 4148.3956 L4039.4366 4148.8456 L4039.8966 4150.2156 L4040.8066 4151.1256 L4042.1666 4151.5756 M 4043.0766 4142.2156L4043.5366 4142.6656 L4043.9866 4142.2156 L4043.5366 4141.7556 L4043.0766 4142.2156 M 4035.8066 4136.0256L4036.2566 4137.3956 L4037.6266 4138.3056 L4039.8966 4138.7556 L4041.2566 4138.7556 L4043.5366 4138.3056 L4044.8966 4137.3956 L4045.3466 4136.0256 L4045.3466 4135.1256 L4044.8966 4133.7556 L4043.5366 4132.8456 L4041.2566 4132.3956 L4039.8966 4132.3956 L4037.6266 4132.8456 L4036.2566 4133.7556 L4035.8066 4135.1256 L4035.8066 4136.0256 M 4035.8066 4126.6656L4036.2566 4128.0256 L4037.6266 4128.9356 L4039.8966 4129.3956 L4041.2566 4129.3956 L4043.5366 4128.9356 L4044.8966 4128.0256 L4045.3466 4126.6656 L4045.3466 4125.7556 L4044.8966 4124.3956 L4043.5366 4123.4856 L4041.2566 4123.0256 L4039.8966 4123.0256 L4037.6266 4123.4856 L4036.2566 4124.3956 L4035.8066 4125.7556 L4035.8066 4126.6656 M 4035.8066 4117.3056L4036.2566 4118.6656 L4037.6266 4119.5756 L4039.8966 4120.0256 L4041.2566 4120.0256 L4043.5366 4119.5756 L4044.8966 4118.6656 L4045.3466 4117.3056 L4045.3466 4116.3956 L4044.8966 4115.0256 L4043.5366 4114.1256 L4041.2566 4113.6656 L4039.8966 4113.6656 L4037.6266 4114.1256 L4036.2566 4115.0256 L4035.8066 4116.3956 L4035.8066 4117.3056 M 4038.9866 4110.6656L4045.3466 4110.6656 M 4040.8066 4110.6656L4039.4366 4109.3056 L4038.9866 4108.3956 L4038.9866 4107.0256 L4039.4366 4106.1256 L4040.8066 4105.6656 L4045.3466 4105.6656 M 4040.8066 4105.6656L4039.4366 4104.3056 L4038.9866 4103.3956 L4038.9866 4102.0256 L4039.4366 4101.1256 L4040.8066 4100.6656 L4045.3466 4100.6656 M 4038.9866 4097.6656L4045.3466 4097.6656 M 4040.8066 4097.6656L4039.4366 4096.3056 L4038.9866 4095.3956 L4038.9866 4094.0256 L4039.4366 4093.1256 L4040.8066 4092.6656 L4045.3466 4092.6656 M 4040.8066 4092.6656L4039.4366 4091.3056 L4038.9866 4090.3956 L4038.9866 4089.0256 L4039.4366 4088.1256 L4040.8066 4087.6656 L4045.3466 4087.6656 M 4067.2441 4053.437 4035.8961 4053.437 M 4067.2441 4195.1693 4035.8961 4195.1693" stroke-width="0.4" fill="none" c_shapetype="group" layerid="12" c_fontsize="" id="gge619" locked="0" measuring_type="vertical"/><path d="M4067.2441,4025.878L4120.6729,4025.878M4198.8547,4025.878L4252.2835,4025.878M4073.2441,4027.378L4067.2441,4025.878L4073.2441,4024.378M4246.2835,4027.378L4252.2835,4025.878L4246.2835,4024.378M 4127.22 4015.79L4122.67 4022.15 L4129.49 4022.15 M 4127.22 4015.79L4127.22 4025.33 M 4138.85 4015.79L4134.31 4025.33 M 4132.49 4015.79L4138.85 4015.79 M 4142.31 4023.06L4141.85 4023.51 L4142.31 4023.97 L4142.76 4023.51 L4142.31 4023.06 M 4148.49 4015.79L4147.13 4016.24 L4146.22 4017.61 L4145.76 4019.88 L4145.76 4021.24 L4146.22 4023.51 L4147.13 4024.88 L4148.49 4025.33 L4149.4 4025.33 L4150.76 4024.88 L4151.67 4023.51 L4152.13 4021.24 L4152.13 4019.88 L4151.67 4017.61 L4150.76 4016.24 L4149.4 4015.79 L4148.49 4015.79 M 4157.85 4015.79L4156.49 4016.24 L4155.58 4017.61 L4155.13 4019.88 L4155.13 4021.24 L4155.58 4023.51 L4156.49 4024.88 L4157.85 4025.33 L4158.76 4025.33 L4160.13 4024.88 L4161.04 4023.51 L4161.49 4021.24 L4161.49 4019.88 L4161.04 4017.61 L4160.13 4016.24 L4158.76 4015.79 L4157.85 4015.79 M 4167.22 4015.79L4165.85 4016.24 L4164.95 4017.61 L4164.49 4019.88 L4164.49 4021.24 L4164.95 4023.51 L4165.85 4024.88 L4167.22 4025.33 L4168.13 4025.33 L4169.49 4024.88 L4170.4 4023.51 L4170.85 4021.24 L4170.85 4019.88 L4170.4 4017.61 L4169.49 4016.24 L4168.13 4015.79 L4167.22 4015.79 M 4173.85 4018.97L4173.85 4025.33 M 4173.85 4020.79L4175.22 4019.42 L4176.13 4018.97 L4177.49 4018.97 L4178.4 4019.42 L4178.85 4020.79 L4178.85 4025.33 M 4178.85 4020.79L4180.22 4019.42 L4181.13 4018.97 L4182.49 4018.97 L4183.4 4019.42 L4183.85 4020.79 L4183.85 4025.33 M 4186.85 4018.97L4186.85 4025.33 M 4186.85 4020.79L4188.22 4019.42 L4189.13 4018.97 L4190.49 4018.97 L4191.4 4019.42 L4191.85 4020.79 L4191.85 4025.33 M 4191.85 4020.79L4193.22 4019.42 L4194.13 4018.97 L4195.49 4018.97 L4196.4 4019.42 L4196.85 4020.79 L4196.85 4025.33 M 4067.2441 4052.8783 4067.2441 4015.878 M 4252.2835 4052.8783 4252.2835 4015.878" stroke-width="0.4" fill="none" c_shapetype="group" layerid="12" c_fontsize="" id="gge617" locked="0" measuring_type="straight"/></svg>